<?xml version="1.0" encoding="UTF-8" standalone="no"?>
<svg
   xmlns:dc="http://purl.org/dc/elements/1.1/"
   xmlns:cc="http://creativecommons.org/ns#"
   xmlns:rdf="http://www.w3.org/1999/02/22-rdf-syntax-ns#"
   xmlns:svg="http://www.w3.org/2000/svg"
   xmlns="http://www.w3.org/2000/svg"
   xmlns:sodipodi="http://sodipodi.sourceforge.net/DTD/sodipodi-0.dtd"
   xmlns:inkscape="http://www.inkscape.org/namespaces/inkscape"
   sodipodi:docname="LogoAliant_V6.svg"
   inkscape:version="1.0 (4035a4fb49, 2020-05-01)"
   id="svg8"
   version="1.1"
   viewBox="0 0 500 294.38501"
   height="294.38501mm"
   width="500mm">
  <defs
     id="defs2" />
  <sodipodi:namedview
     showborder="true"
     inkscape:window-maximized="1"
     inkscape:window-y="-6"
     inkscape:window-x="-6"
     inkscape:window-height="938"
     inkscape:window-width="1500"
     showgrid="false"
     inkscape:document-rotation="0"
     inkscape:current-layer="layer1"
     inkscape:document-units="mm"
     inkscape:cy="487.94844"
     inkscape:cx="951.29913"
     inkscape:zoom="0.45257244"
     inkscape:pageshadow="2"
     inkscape:pageopacity="0.0"
     borderopacity="1.0"
     bordercolor="#666666"
     pagecolor="#ffffff"
     id="base"
     width="500mm" />
  <metadata
     id="metadata5">
    <rdf:RDF>
      <cc:Work
         rdf:about="">
        <dc:format>image/svg+xml</dc:format>
        <dc:type
           rdf:resource="http://purl.org/dc/dcmitype/StillImage" />
        <dc:title></dc:title>
      </cc:Work>
    </rdf:RDF>
  </metadata>
  <g
     style="display:inline"
     inkscape:label="Logo ALIANT"
     id="layer1"
     inkscape:groupmode="layer">
    <path
       inkscape:label="T"
       d="m 474.05374,289.8193 c -0.54746,2.86844 -2.31158,4.2668 -5.29084,4.19535 -2.9335,0.0675 -4.01053,-1.36154 -3.23618,-4.31318 0,0 6.67781,-27.79528 6.67781,-27.79528 0.51256,-2.15657 -0.13414,-3.24288 -1.9346,-3.24288 0,0 -6.62932,0.0541 -6.62932,0.0541 -3.04419,0.0809 -4.20929,-1.36155 -3.50881,-4.30629 0.70316,-2.93107 2.58655,-4.44719 5.63531,-4.57913 0,0 27.48088,0.004 27.48088,0.004 0,0 3.86013,0 3.86013,0 2.47323,-0.0264 3.36545,1.4217 2.65596,4.36184 -0.70987,2.94946 -2.2561,4.40574 -4.64844,4.36175 0,0 -10.63504,0 -10.63504,0 -1.86526,0.17812 -3.11573,1.3123 -3.73987,3.39556 0,0 -5.18918,21.61216 -5.18918,21.61216 0,0 -1.49781,6.25021 -1.49781,6.25021 z"
       style="display:inline;fill:#e05d22;fill-opacity:1;fill-rule:nonzero;stroke:none;stroke-width:4.73376"
       id="path927" />
    <path
       inkscape:label="N"
       d="m 442.65956,260.19334 c 0,0 -7.30185,29.95645 -7.30185,29.95645 -0.55691,2.61898 -2.18903,3.9157 -4.88652,3.87624 0,0 -2.29757,0 -2.29757,0 -1.47246,0.0264 -2.57496,-0.46419 -3.31925,-1.507 0,0 -15.49831,-22.64074 -15.49831,-22.64074 -1.65269,-1.82591 -2.69741,-1.81431 -3.13895,0.0541 0,0 -1.05464,4.3733 -1.05464,4.3733 0,0 -3.68922,15.37809 -3.68922,15.37809 -0.61991,2.97726 -2.36686,4.45873 -5.26306,4.41715 -2.88933,-0.0541 -3.98501,-1.55093 -3.27548,-4.47039 0,0 3.23839,-13.50122 3.23839,-13.50122 0,0 5.48741,-22.8486 5.48741,-22.8486 0.51525,-2.17508 1.77051,-3.31682 3.74925,-3.4418 0,0 2.08019,0 2.08019,0 1.30163,0.10805 2.36935,0.70992 3.21769,1.80762 0,0 16.60079,25.13701 16.60079,25.13701 1.59952,1.10968 2.65362,0.66558 3.13426,-1.3477 0,0 2.94475,-12.22965 2.94475,-12.22965 0,0 2.11517,-8.83905 2.11517,-8.83905 0.54341,-2.97959 2.25357,-4.44718 5.15458,-4.4173 2.88915,0.0541 4.03109,1.49794 3.423,4.31575 0,0 -1.42133,5.92864 -1.42133,5.92864 z"
       style="display:inline;fill:#e05d22;fill-opacity:1;fill-rule:nonzero;stroke:none;stroke-width:4.73376"
       id="path925" />
    <path
       inkscape:label="A"
       d="m 361.24082,263.48478 c 0,0 -17.41901,28.58131 -17.41901,28.58131 -0.77837,1.25724 -1.80064,1.94856 -3.0766,2.0756 0,0 -4.38,0 -4.38,0 -1.50027,-0.13406 -1.74071,-1.18072 -0.70319,-3.14829 0,0 24.0712,-38.578 24.0712,-38.578 1.37082,-1.71974 3.45336,-2.57035 6.24338,-2.5358 2.77369,0.0166 4.35709,0.93816 4.75926,2.75527 0,0 5.96825,38.57599 5.96825,38.57599 0.0808,1.83521 -0.63339,2.76211 -2.14271,2.80379 0,0 -4.41272,0.13665 -4.41272,0.13665 -1.23714,-0.12063 -1.94609,-0.82798 -2.12182,-2.10345 0,0 -3.86708,-28.56267 -3.86708,-28.56267 -0.22814,-3.06484 -1.20364,-3.06484 -2.91935,0 z"
       style="fill:#e05d22;fill-opacity:1;fill-rule:nonzero;stroke:none;stroke-width:4.73376"
       id="path923" />
    <path
       inkscape:label="I"
       d="m 316.62976,265.24852 c 0,0 2.59816,-10.83128 2.59816,-10.83128 0.69781,-2.92655 2.5171,-4.41501 5.4227,-4.46818 2.91938,-0.0404 3.96403,1.43758 3.14351,4.41728 0,0 -8.48526,35.31652 -8.48526,35.31652 -0.60789,2.97727 -2.36237,4.45883 -5.25631,4.41719 -2.89161,-0.0541 -3.98727,-1.53937 -3.27766,-4.47034 0,0 5.85486,-24.38119 5.85486,-24.38119 z"
       style="display:inline;fill:#e05d22;fill-opacity:1;fill-rule:nonzero;stroke:none;stroke-width:4.73376"
       id="path921" />
    <path
       transform="matrix(3.2948148,0,0,3.2948148,-92.58767,-220.91543)"
       inkscape:label="L"
       d="m 117.54559,154.96109 c -0.21381,0.89164 -0.71345,1.33642 -1.50479,1.3238 0,0 -0.8615,0.0326 -0.8615,0.0326 0,0 -9.43575,0.008 -9.43575,0.008 -0.96393,-0.0244 -1.31398,-0.5949 -1.04669,-1.70052 0,0 2.48765,-10.35827 2.48765,-10.35827 0.21259,-0.88956 0.76188,-1.34065 1.64651,-1.35889 0.88325,-0.008 1.20247,0.43777 0.952,1.34203 0,0 -0.96813,4.02827 -0.96813,4.02827 0,0 -0.966,4.03315 -0.966,4.03315 -0.21545,0.88819 0.0163,1.32591 0.69871,1.30979 0,0 3.35832,-0.0163 3.35832,-0.0163 0,0 4.84203,0 4.84203,0 0.74925,0.0163 1.01232,0.46441 0.79764,1.35959 z"
       style="display:inline;fill:#e05d22;fill-opacity:1;fill-rule:nonzero;stroke:none;stroke-width:1.43676"
       id="path919" />
    <path
       inkscape:label="A logo"
       d="m 208.33827,294.38433 c 0,0 18.80819,-0.55424 18.80819,-0.55424 5.62155,-0.13667 7.91911,-3.13201 6.90209,-8.99385 -0.14628,-0.8251 -0.35423,-1.7082 -0.63068,-2.65128 0,0 -8.6472,-21.20765 -8.6472,-21.20765 0,0 -27.86228,-68.32644 -27.86228,-68.32644 0,0 -28.86532,-70.77425 -28.86532,-70.77425 -3.58752,-7.53548 -11.3448,-11.34469 -23.28808,-11.41634 -12.01721,-0.14762 -20.07965,3.36313 -24.18473,10.52396 0,0 -55.95323,100.89953 -55.95323,100.89953 -2.38567,6.14611 -0.29655,9.41459 6.27083,9.80059 0,0 21.893967,0 21.893967,0 5.376608,-0.38636 9.067993,-2.52635 11.081223,-6.44191 0,0 34.62562,-58.25329 34.62562,-58.25329 6.91821,-10.92854 8.23109,-11.46023 12.53733,0 0,0 39.61595,102.17788 39.61595,102.17788 0,0 6.39352,16.48533 6.39352,16.48533 2.08501,5.30704 5.86187,8.20791 11.30307,8.73248 z"
       style="display:inline;fill:#e05d22;fill-opacity:1;fill-rule:nonzero;stroke:none;stroke-width:4.73376;opacity:1"
       id="path929" />
    <path
       inkscape:label="Curve right logo"
       d="m 240.40961,145.69094 c 10.44548,-35.33291 25.55316,-65.582936 41.44906,-85.784961 -31.85649,10.623399 -71.82615,95.909071 -78.33293,126.461901 0,0 26.5632,65.12984 26.5632,65.12984 -5.7717,-26.33891 -1.73586,-65.0144 10.32067,-105.80678 z"
       style="display:inline;fill:#ffba30;fill-opacity:1;fill-rule:nonzero;stroke:none;stroke-width:4.73376"
       id="path907" />
    <path
       inkscape:label="Shoulders logo"
       d="M 234.55244,26.791992 C 223.32332,52.10482 166.74358,71.354505 98.634277,71.354505 59.9798,71.354505 25.05144,65.155158 0,55.165115 c 15.93973,22.844186 69.4984,39.639167 133.12116,39.639167 67.79502,0 124.16676,-19.071885 135.76787,-44.206526 -11.64741,-8.309732 -22.31936,-15.378218 -34.33659,-23.805764 z"
       style="display:inline;fill:#ffba30;fill-opacity:1;fill-rule:nonzero;stroke:none;stroke-width:4.73376"
       id="path903" />
    <path
       inkscape:label="Head logo"
       d="m 168.13284,27.344441 c 0,15.107702 -10.63508,27.353837 -23.7525,27.353837 -13.11755,0 -23.75022,-12.246135 -23.75022,-27.353837 C 120.63012,12.243714 131.26279,0 144.38034,0 c 13.11742,0 23.7525,12.243714 23.7525,27.344441 z"
       style="display:inline;fill:#e05d22;fill-opacity:1;fill-rule:nonzero;stroke:none;stroke-width:4.73376"
       id="path905" />
  </g>
</svg>
