<?xml version="1.0" encoding="utf-8"?>
<!-- Generator: Adobe Illustrator 19.2.1, SVG Export Plug-In . SVG Version: 6.00 Build 0)  -->
<svg version="1.1" id="layer" xmlns="http://www.w3.org/2000/svg" xmlns:xlink="http://www.w3.org/1999/xlink" x="0px" y="0px"
	 viewBox="0 0 652 652" style="enable-background:new 0 0 652 652;" xml:space="preserve">
<style type="text/css">
	.st0{fill:#EE3124;}
</style>
<g>
	<path d="M187.1,279.8l-79.8,34l44.5,34.4H101l-31.5-23.7l-13.8,23.7l-35.9,0l28.7-49.7c7.6-13.3,13.6-18.3,30.2-18.9
		c7.2-0.3,17.1,0,17.1,0L83,301.2l50.8-21.4L187.1,279.8z"/>
	<path d="M222.8,302c-17.4,0-19.6,2.9-27.2,16.2c-0.3,0.6-3.2,5.4-2.4,6.4c1.2,1.4,8.9,1.4,10.4,1.4h37.1c17.1,0,18-2.9,25.7-16.2
		c0.5-0.8,2.9-4.8,1.9-5.9c-0.7-0.9-3.6-1.8-11.5-1.8H222.8z M157.5,321l10.4-17.9c11.3-19.5,31.3-23.6,57.6-23.6H272
		c16.1,0,47.7,1,32.4,27.4l-10.4,17.9c-11.3,19.5-31.3,23.6-57.6,23.6h-46.6C173.5,348.5,142.2,347.3,157.5,321"/>
	<polygon points="410.1,324.9 436.4,279.7 472.3,279.7 432.6,348.2 381.9,348.2 351.5,303 325.3,348.2 289.4,348.2 329.1,279.7 
		379.7,279.7 	"/>
	<path d="M457.8,347.8c-5.9,0.7-14,0.4-14,0.4l39.8-68.5h32.3l-28.1,48.4C480.2,341.1,472.6,346.2,457.8,347.8"/>
	<path class="st0" d="M514.1,387.8c10,17.3,26.2,17.3,36.2,0l65.3-113.1c10-17.3,1.9-31.4-18.1-31.4H470.3
		c-13.9,0-21.7,6.5-22.3,16.2h75.6c16.4,0,23.1,11.5,14.8,25.7l-41.8,72.4L514.1,387.8z"/>
</g>
</svg>
