<?xml version="1.0" encoding="utf-8"?>
<!-- Generator: Adobe Illustrator 22.1.0, SVG Export Plug-In . SVG Version: 6.00 Build 0)  -->
<svg version="1.1" id="Layer_1" xmlns="http://www.w3.org/2000/svg" xmlns:xlink="http://www.w3.org/1999/xlink" x="0px" y="0px"
	 viewBox="0 0 361.3 190.5" style="enable-background:new 0 0 361.3 190.5;" xml:space="preserve">
<style type="text/css">
	.st0{fill:#FFFFFF;}
</style>
<title>partner-cisco-logo-wht</title>
<path class="st0" d="M103.6,135.5h12.5c4.5,0,7.9,1.2,10.2,3.5c2.1,2.2,3.1,5.1,3,8.2c0.2,3.4-1.4,6.6-4.1,8.6
	c-2.7,1.8-5.9,2.8-9.2,2.6h-9.4v14.2h-2.9V135.5z M116.2,138h-9.7v17.9h9.5c2.9,0.2,5.7-0.8,7.9-2.7c1.6-1.6,2.4-3.8,2.3-6.1
	c0.2-2.7-1-5.3-3-7.1C121.2,138.6,118.7,137.9,116.2,138L116.2,138z"/>
<path class="st0" d="M136,152.8h-3c0.2-2.4,1.5-4.6,3.5-5.9c2.1-1.3,4.5-1.9,6.9-1.8c2.8-0.2,5.5,0.8,7.6,2.7
	c1.6,1.6,2.5,3.8,2.4,6.1v18.8h-2.3l-0.5-4.5c-1.9,3.4-5.6,5.4-9.5,5.2c-2.4,0.1-4.8-0.6-6.7-2.2c-3-2.9-3-7.7,0-10.7
	c0.2-0.2,0.3-0.3,0.5-0.4c2.2-1.6,4.8-2.5,7.6-2.9l8.2-1.3v-2.3c0.1-1.9-0.7-3.7-2.2-4.8c-1.5-1-3.3-1.5-5.1-1.4
	c-1.9-0.1-3.9,0.5-5.4,1.6C136.8,149.9,136.1,151.3,136,152.8z M141.9,171c2.3,0,4.6-0.9,6.2-2.5c1.6-1.4,2.5-3.4,2.5-5.5v-4.9
	l-7.2,1.2c-2.4,0.2-4.8,1.1-6.8,2.6c-1,1-1.6,2.3-1.5,3.7c-0.1,1.7,0.7,3.3,2.2,4.2C138.8,170.7,140.3,171.1,141.9,171z"/>
<path class="st0" d="M161.3,172.6h-2.8v-26.8h2.3l0.4,5.2c1.4-3.9,3.9-5.9,7.5-5.9c0.9,0,1.9,0.1,2.8,0.4v2.7
	c-1-0.3-1.9-0.4-2.9-0.5c-2.2,0-4.3,1.2-5.4,3.1c-1.4,2.1-2,4.6-1.9,7.2V172.6z"/>
<path class="st0" d="M188.2,148.2h-6.2v19c0,2.5,1.2,3.8,3.5,3.8c1.1,0,2.2-0.1,3.3-0.4v2.2c-1.1,0.3-2.2,0.5-3.4,0.5
	c-1.8,0.1-3.5-0.5-4.7-1.8c-1-1.2-1.5-2.8-1.4-4.4v-18.9h-3.9v-2.4h3.9l0.1-6.5h2.6v6.5h6.2V148.2z"/>
<path class="st0" d="M195.2,172.6h-2.8v-26.8h2.3l0.3,4.6c0.9-1.8,2.3-3.2,4.1-4.2c1.5-0.8,3.2-1.2,4.9-1.2c2.7-0.2,5.2,0.9,7,2.8
	c1.6,1.8,2.3,4.1,2.2,6.5v18.2h-2.8v-18.1c0.1-2-0.6-4-2.1-5.5c-1.4-1.1-3.2-1.7-5-1.6c-2.2,0-4.4,0.9-5.9,2.6
	c-1.5,1.6-2.3,3.7-2.3,5.9V172.6z"/>
<path class="st0" d="M239,165.3h3c-0.6,2.5-2.1,4.7-4.3,6.1c-5.3,3.2-12.1,2.3-16.3-2.2c-2.3-2.9-3.4-6.4-3.3-10.1
	c-0.3-4,1.2-8,4-11c2.2-2.2,5.2-3.3,8.3-3.3c3.5-0.2,6.9,1.4,9.1,4.1c2.2,3.1,3.3,6.9,3,10.7h-21.6c-0.1,3.3,1.1,6.4,3.4,8.8
	c1.8,1.6,4.1,2.4,6.5,2.4c2,0.1,3.9-0.6,5.5-1.7C237.6,168.2,238.5,166.9,239,165.3z M230.3,147.4c-2.6-0.1-5,1-6.7,3
	c-1.6,2.1-2.6,4.6-2.7,7.3h18.5c0.1-3-1.1-5.9-3.2-8C234.6,148.1,232.5,147.3,230.3,147.4L230.3,147.4z"/>
<path class="st0" d="M250.5,172.6h-2.8v-26.8h2.3l0.4,5.2c1.4-3.9,3.9-5.9,7.5-5.9c0.9,0,1.9,0.1,2.8,0.4v2.7
	c-1-0.3-1.9-0.4-2.9-0.5c-2.2,0-4.2,1.2-5.4,3.1c-1.3,2.1-2,4.6-1.9,7.2L250.5,172.6z"/>
<rect x="138.2" y="84.6" class="st0" width="8.7" height="34.6"/>
<path class="st0" d="M217.3,94.5c-2.3-1.2-4.8-1.9-7.4-1.9c-5.1,0-9.2,4.1-9.2,9.2c0,5.1,4.1,9.2,9.2,9.2c0,0,0,0,0,0
	c2.6,0,5.1-0.7,7.4-1.9v9.3c-2.6,0.8-5.3,1.2-8,1.2c-9.8,0-18.4-6.8-18.4-17.9c0-10.3,7.8-17.9,18.4-17.9c2.7,0,5.4,0.4,8,1.2V94.5z
	"/>
<path class="st0" d="M126.2,94.5c-2.2-1.2-4.8-1.9-7.3-1.9c-5.1,0-9.2,4.1-9.2,9.2c0,5.1,4.1,9.2,9.2,9.2c0,0,0,0,0,0
	c2.6,0,5.1-0.7,7.3-1.9v9.3c-2.6,0.8-5.3,1.2-8,1.2c-9.8,0-18.4-6.8-18.4-17.9c0-10.3,7.8-17.9,18.4-17.9c2.7,0,5.4,0.4,8,1.2V94.5z
	"/>
<path class="st0" d="M263,101.9c0.2,10.1-7.8,18.4-17.9,18.6c-10.1,0.2-18.4-7.8-18.6-17.9c-0.2-10.1,7.8-18.4,17.9-18.6
	c0.1,0,0.2,0,0.3,0c9.8-0.3,18,7.4,18.3,17.2C263,101.4,263,101.6,263,101.9z M244.7,92.8c-5,0-9.1,4-9.2,9c0,5,4,9.1,9,9.2
	c5,0,9.1-4,9.2-9c0,0,0,0,0-0.1c0.1-4.9-3.8-9-8.8-9.1C244.9,92.8,244.8,92.8,244.7,92.8z"/>
<path class="st0" d="M180,92.4c-2.2-0.6-4.5-1-6.8-1.1c-3.5,0-5.4,1.2-5.4,2.8c0,2.1,2.6,2.8,4,3.3l2.4,0.8c5.7,1.8,8.2,5.7,8.2,9.9
	c0,8.7-7.6,11.6-14.3,11.6c-3.2,0-6.3-0.3-9.4-0.9v-7.9c2.7,0.8,5.5,1.2,8.3,1.3c4.3,0,6.3-1.3,6.3-3.3s-1.7-2.8-3.9-3.4l-1.9-0.6
	c-4.9-1.5-8.9-4.4-8.9-10.1c0-6.5,4.9-10.8,12.9-10.8c2.9,0,5.7,0.4,8.5,1.1L180,92.4z"/>
<path class="st0" d="M90.6,47.4c0-2.4-1.9-4.3-4.3-4.3c-2.4,0-4.3,1.9-4.3,4.3v9.1c0,2.4,1.9,4.3,4.3,4.3c2.4,0,4.3-1.9,4.3-4.3
	c0,0,0,0,0,0V47.4z"/>
<path class="st0" d="M114.4,35.5c-0.1-2.4-2.2-4.2-4.6-4.1c-2.2,0.1-3.9,1.9-4.1,4.1v21c-0.1,2.4,1.7,4.4,4.1,4.6
	c2.4,0.1,4.4-1.7,4.6-4.1c0-0.2,0-0.4,0-0.5V35.5z"/>
<path class="st0" d="M138.2,19.2c0-2.4-1.9-4.3-4.3-4.3c-2.4,0-4.3,1.9-4.3,4.3v46c0,2.4,1.9,4.3,4.3,4.3c2.4,0,4.3-1.9,4.3-4.3
	V19.2z"/>
<path class="st0" d="M162,35.5c-0.1-2.4-2.2-4.2-4.6-4.1c-2.2,0.1-3.9,1.9-4.1,4.1v21c-0.1,2.4,1.7,4.4,4.1,4.6
	c2.4,0.1,4.4-1.7,4.6-4.1c0-0.2,0-0.4,0-0.5V35.5z"/>
<path class="st0" d="M185.7,47.4c0-2.4-1.9-4.3-4.3-4.3c-2.4,0-4.3,1.9-4.3,4.3c0,0,0,0,0,0v9.1c0,2.4,1.9,4.3,4.3,4.3
	s4.3-1.9,4.3-4.3c0,0,0,0,0,0V47.4z"/>
<path class="st0" d="M209.5,35.5c0-2.4-1.9-4.3-4.3-4.3c-2.4,0-4.3,1.9-4.3,4.3v21c0,2.4,1.9,4.3,4.3,4.3c2.4,0,4.3-1.9,4.3-4.3
	V35.5z"/>
<path class="st0" d="M233.4,19.2c0.1-2.4-1.7-4.4-4-4.6c-2.4-0.1-4.4,1.7-4.6,4c0,0.2,0,0.4,0,0.5v46c-0.1,2.4,1.7,4.4,4,4.6
	c2.4,0.1,4.4-1.7,4.6-4c0-0.2,0-0.4,0-0.5V19.2z"/>
<path class="st0" d="M257.2,35.5c-0.1-2.4-2.2-4.2-4.6-4.1c-2.2,0.1-3.9,1.9-4.1,4.1v21c0.1,2.4,2.2,4.2,4.6,4.1
	c2.2-0.1,3.9-1.9,4.1-4.1V35.5z"/>
<path class="st0" d="M280.9,47.4c0-2.4-1.9-4.3-4.3-4.3c-2.4,0-4.3,1.9-4.3,4.3v9.1c0,2.4,1.9,4.3,4.3,4.3c2.4,0,4.3-1.9,4.3-4.3
	V47.4z"/>
</svg>
