<?xml version="1.0" encoding="utf-8"?>
<!-- Generator: Adobe Illustrator 23.0.4, SVG Export Plug-In . SVG Version: 6.00 Build 0)  -->
<svg version="1.1" id="_x3C_Layer_x3E__2_" xmlns="http://www.w3.org/2000/svg" xmlns:xlink="http://www.w3.org/1999/xlink" x="0px"
	 y="0px" viewBox="0 0 500 231.826" style="enable-background:new 0 0 500 231.826;" xml:space="preserve">
<style type="text/css">
	.st0{fill:#C90C0F;}
	.st1{fill:#FBBA00;}
	.st2{fill:#0F4586;}
	.st3{fill:#004F9F;}
</style>
<path class="st0" d="M0.001,153.171v23.501c0,1.317,1.067,2.38,2.384,2.38h93.675c1.975,0,3.067-2.245,1.881-3.828
	c-5.107-6.817-8.906-14.402-11.397-22.715c-0.303-1.014-1.214-1.721-2.274-1.721H2.385C1.069,150.788,0.001,151.855,0.001,153.171"
	/>
<path class="st1" d="M83.187,121.315c0.229-4.273,0.703-8.436,1.411-12.484c0.254-1.472-0.851-2.822-2.343-2.822H2.384
	c-1.317,0-2.384,1.067-2.384,2.384v23.501c0,1.313,1.067,2.38,2.384,2.38h78.382c1.37,0,2.437-1.141,2.372-2.507
	C82.982,128.373,82.994,124.889,83.187,121.315"/>
<path class="st2" d="M0.001,63.614v23.501c0,1.313,1.067,2.38,2.384,2.38h86.074c0.957,0,1.807-0.577,2.18-1.46
	c3.488-8.248,8.158-15.895,14.01-22.9c1.296-1.554,0.209-3.905-1.812-3.905H2.385C1.069,61.23,0.001,62.297,0.001,63.614"/>
<path class="st3" d="M14.296,212.471l-2.041,1.947c-0.965-1.423-2.077-2.134-3.329-2.134c-0.908,0-1.656,0.282-2.249,0.838
	c-0.597,0.56-0.896,1.263-0.896,2.106c0,0.675,0.204,1.26,0.613,1.746c0.204,0.233,0.503,0.495,0.9,0.785
	c0.397,0.295,0.887,0.617,1.484,0.973c1.767,1.031,2.948,1.963,3.545,2.801c0.601,0.843,0.904,1.947,0.904,3.312
	c0,1.779-0.585,3.218-1.758,4.318c-1.153,1.1-2.678,1.652-4.568,1.652c-1.529,0-2.822-0.327-3.877-0.985
	c-0.536-0.331-1.03-0.756-1.493-1.288c-0.462-0.528-0.908-1.17-1.333-1.922l2.319-1.574c0.63,1.112,1.247,1.877,1.852,2.294
	s1.386,0.625,2.359,0.625c1.071,0,1.914-0.286,2.523-0.855c0.609-0.564,0.912-1.374,0.912-2.425c0-0.716-0.221-1.325-0.667-1.824
	c-0.221-0.258-0.552-0.548-0.994-0.867c-0.438-0.319-0.998-0.679-1.668-1.08c-1.55-0.912-2.625-1.783-3.239-2.609
	c-0.589-0.826-0.879-1.86-0.879-3.104c0-1.66,0.577-3.038,1.73-4.13c1.157-1.1,2.613-1.652,4.371-1.652
	c1.145,0,2.122,0.229,2.932,0.691C12.574,210.574,13.425,211.363,14.296,212.471"/>
<path class="st3" d="M38.556,219.734c0,2.343-0.622,4.47-1.865,6.379c-0.986,1.501-2.274,2.662-3.86,3.476
	c-1.595,0.818-3.349,1.227-5.279,1.227c-3.079,0-5.594-0.981-7.54-2.944c-1.942-1.971-2.916-4.518-2.916-7.647
	c0-3.116,1.03-5.692,3.091-7.724c2.069-2.045,4.678-3.067,7.831-3.067c3.153,0,5.696,0.945,7.635,2.838
	C37.591,214.156,38.556,216.643,38.556,219.734 M35.493,219.705c0-2.245-0.667-4.044-2-5.394c-1.329-1.341-3.12-2.012-5.369-2.012
	c-2.253,0-4.151,0.753-5.688,2.265c-1.517,1.509-2.278,3.394-2.278,5.659c0,2.237,0.707,4.089,2.118,5.557
	c1.415,1.456,3.198,2.184,5.357,2.184c2.245,0,4.114-0.785,5.606-2.359C34.741,224.052,35.493,222.085,35.493,219.705"/>
<polygon class="st3" points="48.415,209.847 45.916,227.578 52.61,227.578 52.214,230.415 42.011,230.415 44.923,209.847 "/>
<path class="st3" d="M73.959,209.847l-1.493,12.178c-0.339,2.683-0.969,4.645-1.889,5.888c-1.484,1.934-3.545,2.903-6.183,2.903
	c-2.114,0-3.877-0.638-5.287-1.918c-1.407-1.296-2.106-2.903-2.106-4.825c0-0.405,0.016-0.838,0.045-1.292
	c0.033-0.45,0.078-0.932,0.139-1.435l1.415-11.499h3.038l-1.456,11.883c-0.045,0.356-0.074,0.683-0.098,0.986
	c-0.02,0.303-0.033,0.585-0.033,0.842c0,1.366,0.38,2.445,1.145,3.235c0.773,0.789,1.82,1.186,3.145,1.186
	c1.546,0,2.715-0.495,3.517-1.493c0.801-1.002,1.341-2.633,1.623-4.891l1.439-11.748H73.959z"/>
<polygon class="st3" points="84.94,212.685 82.756,230.416 79.705,230.416 81.889,212.685 76.974,212.685 77.321,209.847 
	89.99,209.847 89.642,212.685 "/>
<polygon class="st3" points="96.4,209.847 93.868,230.415 90.818,230.415 93.349,209.847 "/>
<path class="st3" d="M121.154,219.734c0,2.343-0.622,4.47-1.865,6.379c-0.986,1.501-2.274,2.662-3.86,3.476
	c-1.595,0.818-3.353,1.227-5.279,1.227c-3.083,0-5.594-0.981-7.54-2.944c-1.946-1.971-2.916-4.518-2.916-7.647
	c0-3.116,1.026-5.692,3.087-7.724c2.069-2.045,4.682-3.067,7.835-3.067c3.153,0,5.696,0.945,7.635,2.838
	C120.189,214.156,121.154,216.643,121.154,219.734 M118.092,219.705c0-2.245-0.667-4.044-2-5.394
	c-1.333-1.341-3.12-2.012-5.369-2.012c-2.253,0-4.151,0.753-5.688,2.265c-1.517,1.509-2.278,3.394-2.278,5.659
	c0,2.237,0.707,4.089,2.118,5.557c1.411,1.456,3.198,2.184,5.357,2.184c2.245,0,4.114-0.785,5.606-2.359
	C117.339,224.052,118.092,222.085,118.092,219.705"/>
<polygon class="st3" points="144.379,209.847 141.689,231.826 129.204,215.895 127.421,230.415 124.367,230.415 127.045,208.726 
	139.53,224.633 141.341,209.847 "/>
<path class="st3" d="M160.821,212.471l-2.041,1.947c-0.965-1.423-2.077-2.134-3.329-2.134c-0.904,0-1.656,0.282-2.249,0.838
	c-0.597,0.56-0.896,1.263-0.896,2.106c0,0.675,0.204,1.26,0.613,1.746c0.204,0.233,0.503,0.495,0.9,0.785
	c0.397,0.295,0.891,0.617,1.484,0.973c1.767,1.031,2.948,1.963,3.545,2.801c0.601,0.843,0.904,1.947,0.904,3.312
	c0,1.779-0.585,3.218-1.758,4.318c-1.153,1.1-2.678,1.652-4.568,1.652c-1.529,0-2.822-0.327-3.877-0.985
	c-0.536-0.331-1.03-0.756-1.493-1.288c-0.462-0.528-0.908-1.17-1.333-1.922l2.319-1.574c0.63,1.112,1.247,1.877,1.852,2.294
	c0.605,0.417,1.386,0.625,2.359,0.625c1.071,0,1.914-0.286,2.523-0.855c0.609-0.564,0.912-1.374,0.912-2.425
	c0-0.716-0.221-1.325-0.667-1.824c-0.221-0.258-0.552-0.548-0.994-0.867c-0.438-0.319-0.998-0.679-1.668-1.08
	c-1.55-0.912-2.625-1.783-3.239-2.609c-0.585-0.826-0.879-1.86-0.879-3.104c0-1.66,0.577-3.038,1.734-4.13
	c1.153-1.1,2.609-1.652,4.367-1.652c1.145,0,2.122,0.229,2.932,0.691C159.1,210.574,159.95,211.363,160.821,212.471"/>
<path class="st3" d="M175.054,209.847h4.159c1.57,0,2.777,0.082,3.623,0.241c0.859,0.151,1.656,0.438,2.384,0.863
	c1.341,0.773,2.396,1.934,3.169,3.48c0.773,1.546,1.161,3.272,1.161,5.181c0,2.024-0.438,3.901-1.309,5.623
	c-0.433,0.851-0.941,1.599-1.517,2.245c-0.577,0.642-1.239,1.194-1.987,1.644c-0.867,0.499-1.779,0.838-2.727,1.027
	c-0.507,0.09-1.112,0.155-1.816,0.2c-0.699,0.045-1.521,0.066-2.462,0.066h-5.21L175.054,209.847z M177.745,212.685l-1.828,14.893
	h2.323c1.705,0,3.034-0.168,3.995-0.507c0.932-0.327,1.746-0.94,2.437-1.836c1.206-1.529,1.812-3.443,1.812-5.741
	c0-1.431-0.27-2.683-0.814-3.758c-0.548-1.092-1.296-1.885-2.237-2.372c-0.896-0.454-2.225-0.679-3.983-0.679H177.745z"/>
<polygon class="st3" points="205.858,209.847 205.511,212.685 197.958,212.685 197.304,218.013 204.857,218.013 204.538,220.65 
	196.985,220.65 196.134,227.578 203.687,227.578 203.327,230.415 192.736,230.415 195.267,209.847 "/>
<path class="st3" d="M228.137,220.851h8.236c-0.209,2.335-0.765,4.249-1.681,5.741c-1.726,2.817-4.281,4.224-7.675,4.224
	c-2.858,0-5.21-0.965-7.058-2.891c-1.848-1.926-2.772-4.388-2.772-7.381c0-1.624,0.315-3.21,0.949-4.756
	c0.617-1.509,1.488-2.772,2.609-3.782c1.873-1.713,4.196-2.572,6.968-2.572c3.39,0,6.203,1.382,8.432,4.142l-1.983,2.028
	c-1.681-2.204-3.848-3.308-6.502-3.308c-2.196,0-3.975,0.761-5.34,2.278c-1.378,1.537-2.069,3.509-2.069,5.905
	c0,2.204,0.646,3.999,1.934,5.394c1.288,1.394,2.961,2.094,5.022,2.094c1.456,0,2.699-0.401,3.729-1.198
	c1.022-0.801,1.681-1.893,1.971-3.28h-5.099L228.137,220.851z"/>
<polygon class="st3" points="252.734,209.847 252.386,212.685 244.833,212.685 244.179,218.013 251.732,218.013 251.413,220.65 
	243.86,220.65 243.01,227.578 250.562,227.578 250.202,230.415 239.611,230.415 242.143,209.847 "/>
<path class="st3" d="M268.137,212.471l-2.04,1.947c-0.965-1.423-2.077-2.134-3.329-2.134c-0.904,0-1.656,0.282-2.249,0.838
	c-0.597,0.56-0.896,1.263-0.896,2.106c0,0.675,0.204,1.26,0.613,1.746c0.204,0.233,0.503,0.495,0.9,0.785
	c0.397,0.295,0.891,0.617,1.484,0.973c1.767,1.031,2.948,1.963,3.545,2.801c0.601,0.843,0.904,1.947,0.904,3.312
	c0,1.779-0.585,3.218-1.758,4.318c-1.153,1.1-2.678,1.652-4.568,1.652c-1.529,0-2.822-0.327-3.877-0.985
	c-0.536-0.331-1.03-0.756-1.493-1.288c-0.462-0.528-0.908-1.17-1.333-1.922l2.319-1.574c0.63,1.112,1.247,1.877,1.852,2.294
	c0.605,0.417,1.386,0.625,2.359,0.625c1.071,0,1.914-0.286,2.523-0.855c0.609-0.564,0.912-1.374,0.912-2.425
	c0-0.716-0.221-1.325-0.667-1.824c-0.221-0.258-0.552-0.548-0.994-0.867c-0.438-0.319-0.994-0.679-1.668-1.08
	c-1.546-0.912-2.625-1.783-3.239-2.609c-0.585-0.826-0.879-1.86-0.879-3.104c0-1.66,0.577-3.038,1.734-4.13
	c1.153-1.1,2.609-1.652,4.367-1.652c1.145,0,2.122,0.229,2.932,0.691C266.415,210.574,267.266,211.363,268.137,212.471"/>
<polygon class="st3" points="279.064,212.685 276.88,230.416 273.829,230.416 276.013,212.685 271.098,212.685 271.445,209.847 
	284.114,209.847 283.766,212.685 "/>
<polygon class="st3" points="290.524,209.847 287.992,230.415 284.942,230.415 287.473,209.847 "/>
<path class="st3" d="M315.278,219.734c0,2.343-0.622,4.47-1.865,6.379c-0.986,1.501-2.274,2.662-3.86,3.476
	c-1.595,0.818-3.353,1.227-5.279,1.227c-3.083,0-5.594-0.981-7.541-2.944c-1.942-1.971-2.916-4.518-2.916-7.647
	c0-3.116,1.03-5.692,3.091-7.724c2.065-2.045,4.678-3.067,7.831-3.067c3.153,0,5.696,0.945,7.634,2.838
	C314.312,214.156,315.278,216.643,315.278,219.734 M312.215,219.705c0-2.245-0.667-4.044-2-5.394
	c-1.333-1.341-3.12-2.012-5.369-2.012c-2.253,0-4.151,0.753-5.688,2.265c-1.517,1.509-2.278,3.394-2.278,5.659
	c0,2.237,0.707,4.089,2.118,5.557c1.411,1.456,3.198,2.184,5.357,2.184c2.245,0,4.114-0.785,5.606-2.359
	C311.462,224.052,312.215,222.085,312.215,219.705"/>
<polygon class="st3" points="338.501,209.847 335.811,231.826 323.326,215.895 321.543,230.415 318.493,230.415 321.171,208.726 
	333.652,224.633 335.463,209.847 "/>
<path class="st2" d="M222.905,98.498c-2.032-9.082-5.79-16.913-11.168-23.28c-9.446-11.294-22.994-17.019-40.262-17.019
	c-17.718,0-32.918,6.257-45.182,18.598c-12.304,12.374-19.039,27.954-20.013,46.306c-0.949,17.674,3.733,32.039,13.907,42.695
	c10.17,10.653,24.396,16.054,42.295,16.054c11.217,0,20.839-1.959,28.596-5.823c6.048-2.973,12.165-7.822,18.176-14.414
	c7.14-7.708,10.534-14.619,12.026-19.886c0.016-0.033,0.033-0.069,0.045-0.102c0.164-0.491,0.38-1.354,0.675-2.638
	c0.213-0.932-0.057-1.906-0.716-2.601c-0.658-0.699-1.611-1.014-2.564-0.863l-8.031,1.345l0.02-0.008l-18.136,3.038
	c-0.47,0.85-0.965,1.623-1.468,2.355l-0.474,0.617c-6.469,8.415-15.22,11.585-26.527,11.585c-8.039,0-14.578-2.376-19.424-7.05
	c-2.494-2.441-4.228-5.152-5.308-8.285c-0.061-0.184,0-0.331,0.045-0.405c0.045-0.082,0.139-0.184,0.307-0.213l82.332-13.85
	c1.3-0.221,2.282-1.296,2.384-2.613c0.053-0.638,0.094-1.21,0.119-1.689C224.974,112.614,224.414,105.258,222.905,98.498
	 M191.753,102.416c-0.07,0.111-0.188,0.188-0.319,0.213l-17.465,2.936h-0.037c-0.07,0-0.135,0.008-0.2,0.016l-32.853,5.52
	c-0.196,0.033-0.339-0.069-0.397-0.131c-0.061-0.065-0.155-0.204-0.11-0.405l0.18-0.773c0.307-1.325,0.728-2.597,0.728-2.597
	c5.279-14.459,14.353-21.485,27.741-21.485c12.296,0,19.747,5.361,22.785,16.389C191.843,102.236,191.798,102.346,191.753,102.416"
	/>
<path class="st2" d="M486.368,74.838c-9.896-10.987-22.883-16.557-38.594-16.557c-10.726,0-21.358,3.41-31.597,10.137
	c-0.217,0.143-0.405,0.061-0.495,0c-0.09-0.057-0.237-0.196-0.192-0.446l0.617-3.55c0.147-0.846-0.086-1.713-0.638-2.372
	c-0.556-0.654-1.366-1.035-2.229-1.035h-26.33c-1.415,0-2.617,1.01-2.862,2.404l-6.203,35.196l46.703-7.855
	c5.21-3.067,11.033-4.621,17.412-4.621c8.052,0,14.312,2.813,19.154,8.608c4.854,5.737,7.07,13.257,6.584,22.356
	c-0.544,10.203-4.228,19.035-10.939,26.236c-6.624,6.98-14.611,10.521-23.726,10.521c-8.628,0-15.592-2.813-20.712-8.371
	c-5.111-5.398-7.459-12.721-6.976-21.767c0.413-7.696,2.584-14.558,6.428-20.515l-35.801,6.023l-20.745,117.699l-0.016,0.098
	c-0.033,0.172-0.053,0.343-0.053,0.519c0,1.599,1.296,2.891,2.891,2.891c0.135,0,0.262-0.02,0.388-0.037l0.29-0.049l27.017-4.547
	c1.186-0.196,2.122-1.124,2.331-2.31l9.937-56.292c0.041-0.233,0.209-0.315,0.303-0.347c0.102-0.029,0.294-0.057,0.462,0.114
	c4.666,4.686,9.266,8.146,13.654,10.268c5.721,2.895,13.18,4.359,22.172,4.359c17.469,0,32.628-6.338,45.047-18.835
	c12.46-12.529,19.268-28.146,20.242-46.417C500.779,99.746,496.227,85.781,486.368,74.838"/>
<path class="st2" d="M349.177,74.963c-9.892-11.069-23.039-16.684-39.072-16.684c-6.473,0-12.644,0.973-18.336,2.891
	c-3.717,1.255-7.97,3.365-12.64,6.273c-0.225,0.139-0.417,0.057-0.511-0.008c-0.106-0.074-0.225-0.209-0.184-0.446l11.229-63.501
	l0.008-0.033c0.037-0.184,0.053-0.372,0.053-0.564c0-1.595-1.292-2.891-2.891-2.891c-0.188,0-0.372,0.02-0.552,0.057l-0.045,0.004
	l-27.03,4.547c-1.214,0.204-2.171,1.153-2.384,2.368l-20.372,115.43l32.407-5.451c1.488-8.039,4.838-14.86,10.051-20.311
	c6.547-6.968,14.648-10.505,24.073-10.505c8.726,0,15.437,2.793,20.511,8.538c5.066,5.725,7.385,13.273,6.894,22.429
	c-0.544,10.17-4.375,18.949-11.397,26.105c-6.788,7.066-14.975,10.653-24.339,10.653c-8.481,0-15.003-2.723-19.955-8.33
	c-4.22-4.65-6.457-10.742-6.694-18.136l-33.425,5.623l-7.512,42.548c-0.151,0.847,0.082,1.713,0.638,2.372
	c0.552,0.662,1.366,1.039,2.225,1.039h26.33c1.407,0,2.613-1.006,2.862-2.388l1.574-8.722c0.037-0.229,0.2-0.315,0.294-0.348
	c0.09-0.033,0.27-0.065,0.433,0.086c10.403,9.287,22.711,13.993,36.586,13.993c17.068,0,32.059-6.293,44.548-18.696
	c12.374-12.219,19.142-27.725,20.119-46.081C363.575,99.989,359.032,85.902,349.177,74.963"/>
</svg>
