<?xml version="1.0" encoding="utf-8"?>
<!-- Generator: Adobe Illustrator 23.0.1, SVG Export Plug-In . SVG Version: 6.00 Build 0)  -->
<svg version="1.1" id="Layer_1" xmlns="http://www.w3.org/2000/svg" xmlns:xlink="http://www.w3.org/1999/xlink" x="0px" y="0px" viewBox="0 0 504 216" style="enable-background:new 0 0 504 216;" xml:space="preserve">
  <style type="text/css">
	.st0{fill:#838383;}
	.st1{fill:#0055B8;}
	.st2{fill:#010101;}
</style>
  <g>
    <g>
      <path class="st0" d="M98.1,133.8L61.7,97.5l11.3-11.3l25,25l44.8-44.8l-2.8-1.1L98.8,49.8l-41,15.5l-6.5,2.5l0,3.8
			c0,3.9-0.1,8.9,0.2,14.4c0.4,11.3,1.9,24.7,6.7,34.9c4.8,10.3,16.3,28.8,39.4,37.2l1.4,0.5l1.4-0.5c23.1-8.3,34.6-26.9,39.4-37.2
			c4.8-10.2,6.3-23.6,6.7-34.9c0-0.2,0-0.3,0-0.5L98.1,133.8z" />
      <g>
        <g>
          <g>
            <g>
              <path class="st1" d="M232.1,85.1c0-3.8-0.4-7-0.4-9.8h6.5c0,2.2,0.2,4.5,0.2,6.8h0.2c1.9-4,7-7.8,13.7-7.8
							c10.8,0,15.7,6.9,15.7,16.8v25.4h-6.9V91.8c0-6.9-3-11.2-9.4-11.2c-8.9,0-12.8,6.4-12.8,15.8v20.1h-6.9L232.1,85.1L232.1,85.1
							z" />
              <path class="st1" d="M296.9,81.1h-12.1v20.6c0,5.3,0.1,9.5,6.2,9.5c2,0,4.2-0.4,6.1-1.4l0.3,6.3c-2.4,1.1-5.5,1.5-8,1.5
							c-9.8,0-11.4-5.3-11.4-13.8V81.1h-9v-5.8h9V63.6h6.9v11.7h12.1V81.1z" />
              <path class="st1" d="M302,85.1c0-3.8-0.4-7-0.4-9.8h6.5c0,2.2,0.2,4.5,0.2,6.8h0.2c1.9-4,7-7.8,13.7-7.8
							c0.9,0,1.9,0.1,2.8,0.4l-0.4,7c-1.1-0.4-2.5-0.5-3.7-0.5c-8.4,0-12,5.9-12,15.3v20.1H302L302,85.1L302,85.1z" />
              <path class="st1" d="M326.9,80.6c4.2-4.3,10.4-6.3,16.4-6.3c12.1,0,17.2,5.8,17.2,17.4v17.7c0,2.4,0.3,5,0.6,7.1h-6.6
							c-0.4-1.9-0.4-4.4-0.4-6.2h-0.2c-2.7,4.2-7.3,7.2-13.5,7.2c-8.4,0-15.3-4.2-15.3-12.2c0-13.6,15.8-14.4,26-14.4h2.6v-1.2
							c0-6-3.8-9.1-10.2-9.1c-4.4,0-9,1.5-12.2,4.5L326.9,80.6z M346.7,96.7c-8.7,0-14.3,2.4-14.3,7.9c0,5.2,3.9,7.1,9.1,7.1
							c7.9,0,12-5.7,12.1-12.4v-2.6L346.7,96.7L346.7,96.7z" />
              <path class="st1" d="M395.7,85.6c-2.9-3.5-6.3-5-10.4-5c-9.2,0-13.9,6.9-13.9,15.3c0,8.4,5.5,15.3,13.9,15.3
							c4.5,0,7.9-1.6,10.5-5.1l5.1,4.8c-4,4.6-9.6,6.6-15.6,6.6c-12.8,0-21.3-9-21.3-21.6c0-12.5,8.6-21.6,21.3-21.6
							c6.1,0,11.7,2,15.8,6.5L395.7,85.6z" />
              <path class="st1" d="M405.4,50h6.9v43.5L431,75.3h9.8l-19.9,18.7l21.9,22.4h-10.1l-20.4-21.6v21.6h-6.9L405.4,50L405.4,50z" />
            </g>
          </g>
          <g>
            <path class="st1" d="M162.4,85.4c0-18.9,13.7-32.9,32.7-32.9c19,0,32.7,14,32.7,32.9s-13.7,32.9-32.7,32.9
						C176.1,118.2,162.4,104.3,162.4,85.4z M219.9,85.4c0-14.4-10.1-26-24.8-26s-24.8,11.6-24.8,26s10.1,26,24.8,26
						S219.9,99.8,219.9,85.4z" />
          </g>
        </g>
        <g>
          <path d="M447.9,74.6c2.6,0,4.8,2.1,4.8,4.9c0,2.8-2.2,4.9-4.8,4.9c-2.7,0-4.8-2.1-4.8-4.9C443.1,76.7,445.3,74.6,447.9,74.6z
					 M447.9,83.6c2.2,0,4-1.8,4-4.1s-1.8-4.1-4-4.1c-2.2,0-4,1.8-4,4.1S445.7,83.6,447.9,83.6z M446.1,76.6h2.1c1.3,0,2,0.5,2,1.6
					c0,1-0.7,1.5-1.5,1.5l1.6,2.5h-0.9l-1.5-2.4h-0.9v2.4h-0.9L446.1,76.6L446.1,76.6z M447,79.1h0.9c0.8,0,1.5,0,1.5-1
					c0-0.8-0.7-0.9-1.3-0.9h-1.1L447,79.1L447,79.1z" />
        </g>
      </g>
    </g>
    <g>
      <path class="st2" d="M165.1,133.7h11.4c4.6,0,7.6,2.7,7.6,7.3s-3,7.3-7.6,7.3h-8.9v11h-2.4V133.7z M167.5,146.3h8.4
			c3.4,0,5.7-1.7,5.7-5.2s-2.3-5.2-5.7-5.2h-8.4V146.3z" />
      <path class="st2" d="M187.1,146.5c0.2-4.3,3.3-6.2,7.5-6.2c3.3,0,6.8,1,6.8,6v9.8c0,0.9,0.4,1.4,1.3,1.4c0.3,0,0.5-0.1,0.7-0.1
			v1.9c-0.5,0.1-0.9,0.1-1.5,0.1c-2.3,0-2.7-1.3-2.7-3.2h-0.1c-1.6,2.4-3.2,3.8-6.8,3.8c-3.4,0-6.2-1.7-6.2-5.4c0-5.2,5.1-5.4,9.9-6
			c1.9-0.2,2.9-0.5,2.9-2.5c0-3-2.2-3.8-4.9-3.8c-2.8,0-4.9,1.3-5,4.3L187.1,146.5L187.1,146.5z M199.1,149.2L199.1,149.2
			c-0.4,0.5-1.4,0.7-2,0.8c-3.8,0.7-8.6,0.6-8.6,4.3c0,2.3,2,3.7,4.1,3.7c3.5,0,6.5-2.2,6.5-5.8L199.1,149.2L199.1,149.2z" />
      <path class="st2" d="M205.9,140.8h2.1v4.3h0.1c1.1-3,3.7-4.7,7-4.6v2.3c-4.1-0.2-6.9,2.8-6.9,6.6v9.9h-2.3L205.9,140.8
			L205.9,140.8z" />
      <path class="st2" d="M220.8,140.8h3.8v1.9h-3.8v12.5c0,1.5,0.2,2.3,1.8,2.4c0.6,0,1.3,0,1.9-0.1v1.9c-0.7,0-1.3,0.1-2,0.1
			c-3,0-4.1-1-4-4.2v-12.7h-3.2v-1.9h3.2v-5.6h2.3V140.8z" />
      <path class="st2" d="M229.1,150.7c0,3.3,1.8,7.3,6.1,7.3c3.3,0,5.1-1.9,5.8-4.7h2.3c-1,4.2-3.4,6.6-8.1,6.6
			c-5.9,0-8.4-4.5-8.4-9.8c0-4.9,2.5-9.8,8.4-9.8c6,0,8.3,5.2,8.1,10.4L229.1,150.7L229.1,150.7z M241.1,148.8
			c-0.1-3.4-2.2-6.6-5.9-6.6c-3.7,0-5.7,3.2-6.1,6.6H241.1z" />
      <path class="st2" d="M246.4,140.8h2.3v3.2h0.1c0.8-2.2,3.3-3.7,5.9-3.7c5.2,0,6.8,2.7,6.8,7.1v11.9h-2.3v-11.6
			c0-3.2-1-5.6-4.7-5.6c-3.6,0-5.7,2.7-5.8,6.4v10.8h-2.3V140.8z" />
      <path class="st2" d="M265.5,146.5c0.2-4.3,3.3-6.2,7.5-6.2c3.3,0,6.8,1,6.8,6v9.8c0,0.9,0.4,1.4,1.3,1.4c0.3,0,0.5-0.1,0.7-0.1
			v1.9c-0.5,0.1-0.9,0.1-1.5,0.1c-2.3,0-2.7-1.3-2.7-3.2h-0.1c-1.6,2.4-3.2,3.8-6.8,3.8c-3.4,0-6.2-1.7-6.2-5.4c0-5.2,5.1-5.4,9.9-6
			c1.9-0.2,2.9-0.5,2.9-2.5c0-3-2.2-3.8-4.8-3.8c-2.8,0-4.9,1.3-5,4.3L265.5,146.5L265.5,146.5z M277.6,149.2L277.6,149.2
			c-0.4,0.5-1.4,0.7-2,0.8c-3.8,0.7-8.6,0.6-8.6,4.3c0,2.3,2,3.7,4.1,3.7c3.5,0,6.5-2.2,6.5-5.8L277.6,149.2L277.6,149.2z" />
      <path class="st2" d="M284.4,133.7h2.3v3.6h-2.3V133.7z M284.4,140.8h2.3v18.5h-2.3V140.8z" />
      <path class="st2" d="M291,140.8h2.1v4.3h0.1c1.1-3,3.7-4.7,7-4.6v2.3c-4.1-0.2-6.9,2.8-6.9,6.6v9.9H291L291,140.8L291,140.8z" />
      <path class="st2" d="M303,150.7c0,3.3,1.8,7.3,6.1,7.3c3.3,0,5.1-1.9,5.8-4.7h2.3c-1,4.2-3.4,6.6-8.1,6.6c-5.9,0-8.4-4.5-8.4-9.8
			c0-4.9,2.5-9.8,8.4-9.8c6,0,8.3,5.2,8.1,10.4L303,150.7L303,150.7z M314.9,148.8c-0.1-3.4-2.2-6.6-5.9-6.6c-3.7,0-5.7,3.2-6.1,6.6
			H314.9z" />
      <path class="st2" d="M338.2,133.7h2.7l10,25.6h-2.6l-3.1-8h-11.7l-3.1,8h-2.6L338.2,133.7z M334.3,149.3h10.1l-5-13.1L334.3,149.3
			z" />
      <path class="st2" d="M368.5,157.8c0,5.5-2.2,8.9-8.2,8.9c-3.7,0-7.4-1.6-7.7-5.6h2.3c0.5,2.7,2.9,3.7,5.4,3.7c4.2,0,6-2.5,6-7
			v-2.5h-0.1c-1,2.3-3.2,3.8-5.9,3.8c-5.9,0-8.4-4.2-8.4-9.5c0-5.1,3-9.3,8.4-9.3c2.7,0,5,1.7,5.9,3.7h0.1v-3.2h2.3L368.5,157.8
			L368.5,157.8z M366.2,149.9c0-3.6-1.7-7.7-6-7.7c-4.3,0-6.1,3.8-6.1,7.7c0,3.7,1.9,7.4,6.1,7.4
			C364.2,157.2,366.2,153.6,366.2,149.9z" />
      <path class="st2" d="M372.8,140.8h2.1v4.3h0.1c1.2-3,3.7-4.7,7-4.6v2.3c-4.1-0.2-6.9,2.8-6.9,6.6v9.9h-2.3V140.8z" />
      <path class="st2" d="M384.8,150.7c0,3.3,1.8,7.3,6.1,7.3c3.3,0,5.1-1.9,5.8-4.7h2.3c-1,4.2-3.4,6.6-8.1,6.6
			c-5.9,0-8.4-4.5-8.4-9.8c0-4.9,2.5-9.8,8.4-9.8c6,0,8.3,5.2,8.2,10.4L384.8,150.7L384.8,150.7z M396.8,148.8
			c-0.1-3.4-2.2-6.6-5.9-6.6c-3.7,0-5.7,3.2-6.1,6.6H396.8z M390.3,138.2h-1.8l3.8-5.1h2.8L390.3,138.2z" />
      <path class="st2" d="M403.4,150.7c0,3.3,1.8,7.3,6.1,7.3c3.3,0,5.1-1.9,5.8-4.7h2.3c-1,4.2-3.4,6.6-8.1,6.6
			c-5.9,0-8.4-4.5-8.4-9.8c0-4.9,2.5-9.8,8.4-9.8c6,0,8.3,5.2,8.2,10.4L403.4,150.7L403.4,150.7z M415.4,148.8
			c-0.1-3.4-2.2-6.6-5.9-6.6c-3.7,0-5.7,3.2-6.1,6.6H415.4z M408.9,138.2h-1.8l3.8-5.1h2.8L408.9,138.2z" />
    </g>
  </g>
</svg>