<?xml version="1.0" encoding="utf-8"?>
<!-- Generator: Adobe Illustrator 23.0.1, SVG Export Plug-In . SVG Version: 6.00 Build 0)  -->
<svg version="1.1" id="Layer_1" xmlns="http://www.w3.org/2000/svg" xmlns:xlink="http://www.w3.org/1999/xlink" x="0px" y="0px" viewBox="0 0 504 216" style="enable-background:new 0 0 504 216;" xml:space="preserve">
  <style type="text/css">
	.st0{fill:#010101;}
	.st1{fill:#838383;}
	.st2{fill:#0055B8;}
</style>
  <g>
    <g>
      <path class="st0" d="M182.2,133.7h2.7l10,25.6h-2.6l-3.1-8h-11.7l-3.1,8h-2.6L182.2,133.7z M178.3,149.3h10.1l-5-13.1L178.3,149.3
			z" />
      <path class="st0" d="M211.9,159.3h-2.1V156h-0.1c-1.2,2.5-3.6,3.9-6.4,3.9c-4.7,0-6.5-2.7-6.5-7v-12h2.3v12.1
			c0.1,3.3,1.4,5.1,5,5.1c3.9,0,5.6-3.7,5.6-7.4v-9.7h2.3L211.9,159.3L211.9,159.3z" />
      <path class="st0" d="M219.7,140.8h3.8v1.9h-3.8v12.5c0,1.5,0.2,2.3,1.8,2.4c0.6,0,1.3,0,1.9-0.1v1.9c-0.7,0-1.3,0.1-2,0.1
			c-3,0-4.1-1-4-4.2v-12.7h-3.2v-1.9h3.2v-5.6h2.3V140.8z" />
      <path class="st0" d="M226.7,133.7h2.3V144h0.1c0.8-2.2,3.3-3.7,5.9-3.7c5.2,0,6.8,2.7,6.8,7.1v11.9h-2.3v-11.6
			c0-3.2-1-5.6-4.7-5.6c-3.6,0-5.7,2.7-5.8,6.4v10.8h-2.3V133.7z" />
      <path class="st0" d="M262.6,150.1c0,5.3-3.1,9.8-8.8,9.8s-8.8-4.5-8.8-9.8s3.1-9.8,8.8-9.8C259.5,140.3,262.6,144.8,262.6,150.1z
			 M247.3,150.1c0,4,2.1,7.9,6.5,7.9c4.3,0,6.5-4,6.5-7.9s-2.1-7.9-6.5-7.9S247.3,146.1,247.3,150.1z" />
      <path class="st0" d="M266,140.8h2.1v4.3h0.1c1.1-3,3.7-4.7,7-4.6v2.3c-4.1-0.2-6.9,2.8-6.9,6.6v9.9H266L266,140.8L266,140.8z" />
      <path class="st0" d="M277.3,133.7h2.3v3.6h-2.3V133.7z M277.3,140.8h2.3v18.5h-2.3V140.8z" />
      <path class="st0" d="M285,157.4h12.7v1.9h-15.5v-1.8l12.1-14.8h-11.3v-1.9h14.1v1.6L285,157.4z" />
      <path class="st0" d="M301.9,150.7c0,3.3,1.8,7.3,6.1,7.3c3.3,0,5.1-1.9,5.8-4.7h2.3c-1,4.2-3.4,6.6-8.1,6.6
			c-5.9,0-8.4-4.5-8.4-9.8c0-4.9,2.5-9.8,8.4-9.8c6,0,8.3,5.2,8.1,10.4L301.9,150.7L301.9,150.7z M313.8,148.8
			c-0.1-3.4-2.2-6.6-5.9-6.6c-3.7,0-5.7,3.2-6.1,6.6H313.8z" />
      <path class="st0" d="M335.4,159.3h-2.1v-3.5h-0.1c-1,2.4-3.9,4.1-6.6,4.1c-5.6,0-8.3-4.6-8.3-9.8s2.7-9.8,8.3-9.8
			c2.8,0,5.5,1.4,6.4,4.1h0.1v-10.6h2.3L335.4,159.3L335.4,159.3z M326.7,158c4.8,0,6.5-4.1,6.5-7.9s-1.7-7.9-6.5-7.9
			c-4.3,0-6.1,4.1-6.1,7.9S322.4,158,326.7,158z" />
      <path class="st0" d="M350.1,133.7h11.4c4.6,0,7.6,2.7,7.6,7.3s-3,7.3-7.6,7.3h-8.9v11h-2.4L350.1,133.7L350.1,133.7z M352.6,146.3
			h8.4c3.4,0,5.7-1.7,5.7-5.2s-2.3-5.2-5.7-5.2h-8.4V146.3z" />
      <path class="st0" d="M372.1,146.5c0.2-4.3,3.3-6.2,7.5-6.2c3.3,0,6.8,1,6.8,6v9.8c0,0.9,0.4,1.4,1.3,1.4c0.3,0,0.5-0.1,0.7-0.1
			v1.9c-0.5,0.1-0.9,0.1-1.5,0.1c-2.3,0-2.7-1.3-2.7-3.2h-0.1c-1.6,2.4-3.2,3.8-6.8,3.8c-3.4,0-6.2-1.7-6.2-5.4c0-5.2,5.1-5.4,9.9-6
			c1.9-0.2,2.9-0.5,2.9-2.5c0-3-2.2-3.8-4.8-3.8c-2.8,0-4.9,1.3-5,4.3L372.1,146.5L372.1,146.5z M384.2,149.2L384.2,149.2
			c-0.4,0.5-1.4,0.7-2,0.8c-3.8,0.7-8.6,0.6-8.6,4.3c0,2.3,2,3.7,4.1,3.7c3.5,0,6.5-2.2,6.5-5.8L384.2,149.2L384.2,149.2z" />
      <path class="st0" d="M391,140.8h2.1v4.3h0.1c1.2-3,3.7-4.7,7-4.6v2.3c-4.1-0.2-6.9,2.8-6.9,6.6v9.9H391V140.8z" />
      <path class="st0" d="M405.8,140.8h3.8v1.9h-3.8v12.5c0,1.5,0.2,2.3,1.8,2.4c0.7,0,1.3,0,1.9-0.1v1.9c-0.7,0-1.3,0.1-2,0.1
			c-3,0-4.1-1-4-4.2v-12.7h-3.2v-1.9h3.2v-5.6h2.3V140.8z" />
      <path class="st0" d="M412.8,140.8h2.3v3.2h0.1c0.8-2.2,3.3-3.7,5.9-3.7c5.2,0,6.8,2.7,6.8,7.1v11.9h-2.3v-11.6
			c0-3.2-1-5.6-4.7-5.6c-3.6,0-5.7,2.7-5.8,6.4v10.8h-2.3V140.8z" />
      <path class="st0" d="M433.5,150.7c0,3.3,1.8,7.3,6.1,7.3c3.3,0,5.1-1.9,5.8-4.7h2.3c-1,4.2-3.4,6.6-8.1,6.6
			c-5.9,0-8.4-4.5-8.4-9.8c0-4.9,2.5-9.8,8.4-9.8c6,0,8.3,5.2,8.2,10.4L433.5,150.7L433.5,150.7z M445.5,148.8
			c-0.1-3.4-2.2-6.6-5.9-6.6c-3.7,0-5.7,3.2-6.1,6.6H445.5z" />
      <path class="st0" d="M450.8,140.8h2.1v4.3h0.1c1.2-3,3.7-4.7,7-4.6v2.3c-4.1-0.2-6.9,2.8-6.9,6.6v9.9h-2.3V140.8z" />
    </g>
    <path class="st1" d="M107.8,133.8L71.4,97.5l11.3-11.3l25,25l44.8-44.8l-2.8-1.1l-41.2-15.5L67.4,65.3l-6.5,2.5l0,3.8
		c0,3.9-0.1,8.9,0.2,14.4c0.4,11.3,1.9,24.7,6.7,34.9c4.8,10.3,16.3,28.8,39.4,37.2l1.4,0.5l1.4-0.5c23.1-8.3,34.6-26.9,39.4-37.2
		c4.8-10.2,6.3-23.6,6.7-34.9c0-0.2,0-0.3,0-0.5L107.8,133.8z" />
    <g>
      <g>
        <g>
          <g>
            <path class="st2" d="M241.8,85.1c0-3.8-0.4-7-0.4-9.8h6.5c0,2.2,0.2,4.5,0.2,6.8h0.2c1.9-4,7-7.8,13.7-7.8
						c10.8,0,15.7,6.9,15.7,16.8v25.4h-6.9V91.8c0-6.9-3-11.2-9.4-11.2c-8.9,0-12.8,6.4-12.8,15.8v20.1h-6.9L241.8,85.1L241.8,85.1z
						" />
            <path class="st2" d="M306.5,81.1h-12.1v20.6c0,5.3,0.1,9.5,6.2,9.5c2,0,4.2-0.4,6.1-1.4l0.3,6.3c-2.4,1.1-5.5,1.5-8,1.5
						c-9.8,0-11.4-5.3-11.4-13.8V81.1h-9v-5.8h9V63.6h6.9v11.7h12.1V81.1z" />
            <path class="st2" d="M311.6,85.1c0-3.8-0.4-7-0.4-9.8h6.5c0,2.2,0.2,4.5,0.2,6.8h0.2c1.9-4,7-7.8,13.7-7.8
						c0.9,0,1.9,0.1,2.8,0.4l-0.4,7c-1.1-0.4-2.5-0.5-3.7-0.5c-8.4,0-12,5.9-12,15.3v20.1h-6.9L311.6,85.1L311.6,85.1z" />
            <path class="st2" d="M336.5,80.6c4.2-4.3,10.4-6.3,16.4-6.3c12.1,0,17.2,5.8,17.2,17.4v17.7c0,2.4,0.3,5,0.6,7.1h-6.6
						c-0.4-1.9-0.4-4.4-0.4-6.2h-0.2c-2.7,4.2-7.3,7.2-13.5,7.2c-8.4,0-15.3-4.2-15.3-12.2c0-13.6,15.8-14.4,26-14.4h2.6v-1.2
						c0-6-3.8-9.1-10.2-9.1c-4.4,0-9,1.5-12.2,4.5L336.5,80.6z M356.4,96.7c-8.7,0-14.3,2.4-14.3,7.9c0,5.2,3.9,7.1,9.1,7.1
						c7.9,0,12-5.7,12.1-12.4v-2.6L356.4,96.7L356.4,96.7z" />
            <path class="st2" d="M405.3,85.6c-2.9-3.5-6.3-5-10.4-5c-9.2,0-13.9,6.9-13.9,15.3c0,8.4,5.5,15.3,13.9,15.3
						c4.5,0,7.9-1.6,10.5-5.1l5.1,4.8c-4,4.6-9.6,6.6-15.6,6.6c-12.8,0-21.3-9-21.3-21.6c0-12.5,8.6-21.6,21.3-21.6
						c6.1,0,11.7,2,15.8,6.5L405.3,85.6z" />
            <path class="st2" d="M415.1,50h6.9v43.5l18.7-18.1h9.8l-19.9,18.7l21.9,22.4h-10.1L422,94.9v21.6h-6.9L415.1,50L415.1,50z" />
          </g>
        </g>
        <g>
          <path class="st2" d="M172.1,85.4c0-18.9,13.7-32.9,32.7-32.9c19,0,32.7,14,32.7,32.9s-13.7,32.9-32.7,32.9
					C185.8,118.2,172.1,104.3,172.1,85.4z M229.5,85.4c0-14.4-10.1-26-24.8-26S180,70.9,180,85.4s10.1,26,24.8,26
					S229.5,99.8,229.5,85.4z" />
        </g>
      </g>
      <g>
        <path d="M457.6,74.6c2.6,0,4.8,2.1,4.8,4.9c0,2.8-2.2,4.9-4.8,4.9c-2.7,0-4.8-2.1-4.8-4.9C452.8,76.7,455,74.6,457.6,74.6z
				 M457.6,83.6c2.2,0,4-1.8,4-4.1s-1.8-4.1-4-4.1c-2.2,0-4,1.8-4,4.1S455.4,83.6,457.6,83.6z M455.8,76.6h2.1c1.3,0,2,0.5,2,1.6
				c0,1-0.7,1.5-1.5,1.5l1.6,2.5h-0.9l-1.5-2.4h-0.9v2.4h-0.9L455.8,76.6L455.8,76.6z M456.6,79.1h0.9c0.8,0,1.5,0,1.5-1
				c0-0.8-0.7-0.9-1.3-0.9h-1.1L456.6,79.1L456.6,79.1z" />
      </g>
    </g>
  </g>
</svg>