<svg id="Layer_1" data-name="Layer 1" xmlns="http://www.w3.org/2000/svg" viewBox="0 0 615.84 294.17"><defs><style>.cls-1{fill:#595959;}.cls-2{fill:#fff;}.cls-3{fill:#ed2435;}.cls-4{fill:#e00;}</style></defs><title>Logo-Red_Hat-Technology_Partner-A-Standard-RGB</title><rect class="cls-1" x="2" y="201.8" width="611.84" height="90.37"/><path class="cls-2" d="M133.31,227.8c7.2,0,11.75,3.88,11.75,9.57a8.59,8.59,0,0,1-5,7.82c3.93,1.5,6.42,4.6,6.42,8.54,0,6-4.76,10.3-12.48,10.3H117.63V227.8Zm-10.25,4.6v10.77H133c4.19,0,6.68-2.18,6.68-5.39s-2.49-5.38-6.68-5.38ZM141,253.47c0-3.52-2.79-6-7.4-6H123.06v11.91h10.51C138.18,259.42,141,257,141,253.47Z"/><path class="cls-2" d="M155.77,253.36c0,4.09,2.48,6.68,6.57,6.68a7.4,7.4,0,0,0,6.47-3.42V237.68H174V264h-5.18v-2.64a10.76,10.76,0,0,1-7.92,3.15c-6,0-10.24-4.24-10.24-10.3V237.68h5.12Z"/><path class="cls-2" d="M179.83,257.19a13.54,13.54,0,0,0,8.6,3.32c4.14,0,6.31-1.82,6.31-3.94,0-1.86-1.29-2.95-4.24-3.36l-4.77-.67c-5.17-.73-7.86-3.21-7.86-7.3,0-4.82,4.24-8,10.3-8a18.13,18.13,0,0,1,10.61,3.36l-2.64,3.42a14.48,14.48,0,0,0-8.34-2.75c-3.05,0-5.27,1.35-5.27,3.58,0,2,1.24,2.84,4.34,3.31l4.77.67c5.33.78,8,3.31,8,7.35,0,4.76-4.77,8.28-11,8.28A17.56,17.56,0,0,1,177,260.61Z"/><path class="cls-2" d="M202.4,230.23a3.23,3.23,0,0,1,3.21-3.21,3.21,3.21,0,0,1,0,6.42A3.23,3.23,0,0,1,202.4,230.23Zm5.8,33.8H203V237.68h5.18Z"/><path class="cls-2" d="M213.68,237.68h5.18v2.64a10.76,10.76,0,0,1,7.91-3.16c6.06,0,10.25,4.25,10.25,10.3V264H231.9V248.34c0-4.09-2.49-6.67-6.57-6.67a7.41,7.41,0,0,0-6.47,3.41V264h-5.18Z"/><path class="cls-2" d="M254.56,237.27c7.25,0,12.74,6,12.74,13.76v1.51H246.49a8.89,8.89,0,0,0,8.9,7.55,10.26,10.26,0,0,0,6.68-2.33l3.31,3.26a15.47,15.47,0,0,1-10.19,3.47,13.55,13.55,0,0,1-13.82-13.66A13.23,13.23,0,0,1,254.56,237.27Zm-8,11.38h15.63c-.72-4-3.88-7-7.71-7C250.42,241.61,247.32,244.51,246.54,248.65Z"/><path class="cls-2" d="M272.26,257.19a13.53,13.53,0,0,0,8.59,3.32c4.14,0,6.32-1.82,6.32-3.94,0-1.86-1.3-2.95-4.25-3.36l-4.76-.67c-5.17-.73-7.86-3.21-7.86-7.3,0-4.82,4.24-8,10.3-8a18.13,18.13,0,0,1,10.61,3.36l-2.64,3.42a14.48,14.48,0,0,0-8.34-2.75c-3.05,0-5.28,1.35-5.28,3.58,0,2,1.25,2.84,4.35,3.31l4.76.67c5.33.78,8,3.31,8,7.35,0,4.76-4.76,8.28-11,8.28a17.56,17.56,0,0,1-11.54-3.88Z"/><path class="cls-2" d="M296.12,257.19a13.53,13.53,0,0,0,8.59,3.32c4.14,0,6.32-1.82,6.32-3.94,0-1.86-1.3-2.95-4.25-3.36l-4.76-.67c-5.17-.73-7.87-3.21-7.87-7.3,0-4.82,4.25-8,10.3-8a18.11,18.11,0,0,1,10.61,3.36l-2.64,3.42a14.42,14.42,0,0,0-8.33-2.75c-3,0-5.28,1.35-5.28,3.58,0,2,1.24,2.84,4.35,3.31l4.76.67c5.33.78,8,3.31,8,7.35,0,4.76-4.76,8.28-11,8.28a17.56,17.56,0,0,1-11.54-3.88Z"/><path class="cls-2" d="M330.28,227.8h16.77c7.14,0,11.85,4.45,11.85,10.86s-4.71,10.77-11.85,10.77H335.71V264h-5.43Zm5.43,4.76v12.26h10.77c4.4,0,6.93-2.53,6.93-6.16s-2.53-6.1-6.93-6.1Z"/><path class="cls-2" d="M361,256.47c0-5.28,4.5-8,10.66-8a18,18,0,0,1,7.19,1.45v-2.8c0-3.73-2.22-5.59-6.42-5.59a19.07,19.07,0,0,0-8.17,2.23l-1.92-3.89a24.87,24.87,0,0,1,10.82-2.69c6.78,0,10.76,3.32,10.76,9.42V264h-5.07v-2.28a12.41,12.41,0,0,1-8.18,2.74C364.9,264.49,361,261.18,361,256.47Zm10.87,4.19a10.14,10.14,0,0,0,7-2.48v-4.61A13.87,13.87,0,0,0,372,252c-3.62,0-6.11,1.6-6.11,4.35C365.93,259,368.37,260.66,371.84,260.66Z"/><path class="cls-2" d="M389.33,237.68h5.17v3.26a8.45,8.45,0,0,1,7.2-3.83,7.5,7.5,0,0,1,2.69.42v4.65a9.27,9.27,0,0,0-3.11-.57,7.1,7.1,0,0,0-6.78,4.77V264h-5.17Z"/><path class="cls-2" d="M412.05,242h-5.59v-4.35h5.59V231l5.12-1.24v8h7.76V242h-7.76v14.28c0,2.7,1.09,3.68,3.88,3.68a10.11,10.11,0,0,0,3.78-.62v4.35a18,18,0,0,1-4.92.77c-5.12,0-7.86-2.43-7.86-7Z"/><path class="cls-2" d="M428.19,237.68h5.18v2.64a10.77,10.77,0,0,1,7.92-3.16c6,0,10.24,4.25,10.24,10.3V264h-5.12V248.34c0-4.09-2.48-6.67-6.57-6.67a7.42,7.42,0,0,0-6.47,3.41V264h-5.18Z"/><path class="cls-2" d="M469.08,237.27c7.24,0,12.73,6,12.73,13.76v1.51H461a8.9,8.9,0,0,0,8.91,7.55,10.23,10.23,0,0,0,6.67-2.33l3.31,3.26a15.47,15.47,0,0,1-10.19,3.47,13.55,13.55,0,0,1-13.82-13.66A13.23,13.23,0,0,1,469.08,237.27Zm-8,11.38h15.64c-.73-4-3.89-7-7.72-7C464.94,241.61,461.83,244.51,461.05,248.65Z"/><path class="cls-2" d="M486.15,237.68h5.18v3.26a8.44,8.44,0,0,1,7.19-3.83,7.52,7.52,0,0,1,2.7.42v4.65a9.27,9.27,0,0,0-3.11-.57,7.1,7.1,0,0,0-6.78,4.77V264h-5.18Z"/><rect class="cls-1" x="2" y="201.8" width="611.84" height="90.37"/><path class="cls-2" d="M81.53,227.8h30.9v4.81H99.7V264H94.26V232.61H81.53Z"/><path class="cls-2" d="M121.54,237.27c7.24,0,12.73,6,12.73,13.76v1.51H113.46a8.9,8.9,0,0,0,8.91,7.55,10.23,10.23,0,0,0,6.67-2.33l3.31,3.26a15.47,15.47,0,0,1-10.19,3.47,13.55,13.55,0,0,1-13.82-13.66A13.23,13.23,0,0,1,121.54,237.27Zm-8,11.38h15.64c-.73-4-3.89-7-7.72-7C117.4,241.61,114.29,244.51,113.51,248.65Z"/><path class="cls-2" d="M158.44,256.73l3.1,3.36a14.54,14.54,0,0,1-10.4,4.4,13.67,13.67,0,0,1,0-27.33,15.09,15.09,0,0,1,10.61,4.4l-3.26,3.52a9.82,9.82,0,0,0-7.25-3.31c-4.81,0-8.54,4-8.54,9.06s3.78,9.11,8.65,9.11A9.63,9.63,0,0,0,158.44,256.73Z"/><path class="cls-2" d="M183.43,248.34c0-4.09-2.48-6.67-6.57-6.67a7.43,7.43,0,0,0-6.47,3.41V264h-5.18V227.8l5.18-1.14v13.66a10.77,10.77,0,0,1,7.92-3.16c6.06,0,10.25,4.25,10.25,10.3V264h-5.13Z"/><path class="cls-2" d="M194,237.68h5.18v2.64a10.76,10.76,0,0,1,7.91-3.16c6.06,0,10.25,4.25,10.25,10.3V264h-5.12V248.34c0-4.09-2.49-6.67-6.57-6.67a7.41,7.41,0,0,0-6.47,3.41V264H194Z"/><path class="cls-2" d="M235.44,237.16a13.69,13.69,0,1,1-13.71,13.67A13.53,13.53,0,0,1,235.44,237.16Zm0,4.56a8.8,8.8,0,0,0-8.64,9.11c0,5.12,3.78,9.16,8.64,9.16a9.15,9.15,0,0,0,0-18.27Z"/><path class="cls-2" d="M258.63,264h-5.18V227.8l5.18-1.14Z"/><path class="cls-2" d="M276.69,237.16A13.69,13.69,0,1,1,263,250.83,13.52,13.52,0,0,1,276.69,237.16Zm0,4.56a8.8,8.8,0,0,0-8.64,9.11c0,5.12,3.77,9.16,8.64,9.16a9.15,9.15,0,0,0,0-18.27Z"/><path class="cls-2" d="M293.56,250.72a13.29,13.29,0,0,1,13.35-13.5,12.77,12.77,0,0,1,7.82,2.63v-2.17h5.12v26.55c0,6.94-4.35,10.66-12.06,10.66a22,22,0,0,1-10.61-2.58l2-4a17.87,17.87,0,0,0,8.44,2.28c4.6,0,7-2.12,7-6.27v-2.84a12.3,12.3,0,0,1-7.87,2.79A13.24,13.24,0,0,1,293.56,250.72Zm13.87,9a9.53,9.53,0,0,0,7.25-3.05V244.77a9.53,9.53,0,0,0-7.25-3.05,9,9,0,0,0,0,18Z"/><path class="cls-2" d="M333,264.08l-10.51-26.4h5.69l7.71,20.13,8.49-20.13H350l-12.58,29.19c-2.38,5.44-5.07,7.87-10.09,7.87a11,11,0,0,1-2.74-.26v-4.55a9,9,0,0,0,2.28.2c2.22,0,4-1,5.22-3.88Z"/><path class="cls-2" d="M363.58,227.8h16.77c7.14,0,11.85,4.45,11.85,10.86s-4.71,10.77-11.85,10.77H369V264h-5.43Zm5.43,4.76v12.26h10.77c4.4,0,6.94-2.53,6.94-6.16s-2.54-6.1-6.94-6.1Z"/><path class="cls-2" d="M394.27,256.47c0-5.28,4.5-8,10.66-8a18.12,18.12,0,0,1,7.2,1.45v-2.8c0-3.73-2.23-5.59-6.42-5.59a19.07,19.07,0,0,0-8.18,2.23l-1.92-3.89a24.9,24.9,0,0,1,10.82-2.69c6.78,0,10.77,3.32,10.77,9.42V264h-5.07v-2.28a12.43,12.43,0,0,1-8.18,2.74C398.2,264.49,394.27,261.18,394.27,256.47Zm10.87,4.19a10.18,10.18,0,0,0,7-2.48v-4.61a13.89,13.89,0,0,0-6.78-1.55c-3.63,0-6.11,1.6-6.11,4.35C399.24,259,401.67,260.66,405.14,260.66Z"/><path class="cls-2" d="M422.63,237.68h5.17v3.26a8.46,8.46,0,0,1,7.2-3.83,7.46,7.46,0,0,1,2.69.42v4.65a9.26,9.26,0,0,0-3.1-.57,7.1,7.1,0,0,0-6.79,4.77V264h-5.17Z"/><path class="cls-2" d="M445.35,242h-5.59v-4.35h5.59V231l5.12-1.24v8h7.77V242h-7.77v14.28c0,2.7,1.09,3.68,3.88,3.68a10.07,10.07,0,0,0,3.78-.62v4.35a17.9,17.9,0,0,1-4.91.77c-5.13,0-7.87-2.43-7.87-7Z"/><path class="cls-2" d="M461.49,237.68h5.18v2.64a10.77,10.77,0,0,1,7.92-3.16c6.05,0,10.25,4.25,10.25,10.3V264h-5.13V248.34c0-4.09-2.48-6.67-6.57-6.67a7.43,7.43,0,0,0-6.47,3.41V264h-5.18Z"/><path class="cls-2" d="M502.38,237.27c7.25,0,12.73,6,12.73,13.76v1.51h-20.8a8.88,8.88,0,0,0,8.9,7.55,10.26,10.26,0,0,0,6.68-2.33L513.2,261a15.51,15.51,0,0,1-10.2,3.47,13.56,13.56,0,0,1-13.82-13.66A13.24,13.24,0,0,1,502.38,237.27Zm-8,11.38H510c-.73-4-3.88-7-7.71-7C498.24,241.61,495.13,244.51,494.36,248.65Z"/><path class="cls-2" d="M519.46,237.68h5.17v3.26a8.45,8.45,0,0,1,7.2-3.83,7.5,7.5,0,0,1,2.69.42v4.65a9.27,9.27,0,0,0-3.11-.57,7.1,7.1,0,0,0-6.78,4.77V264h-5.17Z"/><path class="cls-3" d="M129,85c12.51,0,30.61-2.58,30.61-17.46a14,14,0,0,0-.31-3.42l-7.45-32.36c-1.72-7.12-3.23-10.35-15.73-16.6C126.39,10.19,105.26,2,99,2c-5.82,0-7.55,7.54-14.45,7.54-6.68,0-11.64-5.6-17.89-5.6-6,0-9.91,4.09-12.93,12.5,0,0-8.41,23.71-9.49,27.16A6.43,6.43,0,0,0,44,45.54C44,54.76,80.33,85,129,85m32.55-11.42c1.73,8.19,1.73,9.05,1.73,10.13,0,14-15.74,21.77-36.43,21.77C80,105.47,39.08,78.1,39.08,60a18.45,18.45,0,0,1,1.51-7.33C23.77,53.52,2,56.54,2,75.72,2,107.2,76.59,146,135.65,146c45.28,0,56.7-20.48,56.7-36.65,0-12.72-11-27.16-30.83-35.78"/><path d="M161.52,73.57c1.73,8.19,1.73,9.05,1.73,10.13,0,14-15.74,21.77-36.43,21.77C80,105.47,39.08,78.1,39.08,60a18.45,18.45,0,0,1,1.51-7.33l3.66-9.06A6.43,6.43,0,0,0,44,45.54C44,54.76,80.33,85,129,85c12.51,0,30.61-2.58,30.61-17.46a14,14,0,0,0-.31-3.42Z"/><path d="M581.24,94.3c0,11.89,7.15,17.67,20.19,17.67a52.11,52.11,0,0,0,11.89-1.68V96.51a24.84,24.84,0,0,1-7.68,1.16c-5.37,0-7.36-1.68-7.36-6.73V69.8h15.56V55.6H598.28v-18l-17,3.68V55.6H570V69.8h11.25Zm-53,.32c0-3.68,3.69-5.47,9.26-5.47a43.12,43.12,0,0,1,10.1,1.26v7.15A21.51,21.51,0,0,1,537,100.19c-5.47,0-8.73-2.1-8.73-5.57m5.2,17.56c6,0,10.84-1.26,15.36-4.31v3.37h16.82V75.58c0-13.56-9.15-21-24.39-21-8.52,0-16.94,2-26,6.1l6.1,12.52c6.52-2.74,12-4.42,16.83-4.42,7,0,10.62,2.73,10.62,8.31v2.73a49.53,49.53,0,0,0-12.62-1.58c-14.31,0-22.93,6-22.93,16.73,0,9.78,7.78,17.24,20.19,17.24m-92.44-.94h18.09V82.42h30.29v28.82h18.09V37.62H489.43V65.91H459.14V37.62H441.05ZM372.12,83.37c0-8,6.31-14.1,14.62-14.1a17.22,17.22,0,0,1,11.78,4.32V93a16.36,16.36,0,0,1-11.78,4.42c-8.2,0-14.62-6.1-14.62-14.09m26.61,27.87h16.83V33.94l-17,3.68V58.55a28.3,28.3,0,0,0-14.2-3.68c-16.2,0-28.92,12.51-28.92,28.5A28.25,28.25,0,0,0,383.79,112a25.07,25.07,0,0,0,14.94-4.84Zm-77.19-42.7c5.36,0,9.88,3.47,11.67,8.83H310c1.68-5.57,5.89-8.83,11.57-8.83M292.83,83.47c0,16.2,13.25,28.82,30.28,28.82,9.36,0,16.2-2.53,23.25-8.42l-11.26-10c-2.63,2.74-6.52,4.21-11.14,4.21a14.39,14.39,0,0,1-13.68-8.83h39.65V85.05c0-17.67-11.88-30.39-28.08-30.39a28.57,28.57,0,0,0-29,28.81M263.48,53.08c6,0,9.36,3.78,9.36,8.31s-3.36,8.3-9.36,8.3H245.61V53.08Zm-36,58.16h18.09V84.42h13.77l13.89,26.82h20.19l-16.2-29.45a22.27,22.27,0,0,0,13.88-20.72c0-13.25-10.41-23.45-26-23.45H227.52Z"/><path class="cls-4" d="M129,85c12.51,0,30.61-2.58,30.61-17.46a14,14,0,0,0-.31-3.42l-7.45-32.36c-1.72-7.12-3.23-10.35-15.73-16.6C126.39,10.19,105.26,2,99,2c-5.82,0-7.55,7.54-14.45,7.54-6.68,0-11.64-5.6-17.89-5.6-6,0-9.91,4.09-12.93,12.5,0,0-8.41,23.71-9.49,27.16A6.43,6.43,0,0,0,44,45.54C44,54.76,80.33,85,129,85m32.55-11.42c1.73,8.19,1.73,9.05,1.73,10.13,0,14-15.74,21.77-36.43,21.77C80,105.47,39.08,78.1,39.08,60a18.45,18.45,0,0,1,1.51-7.33C23.77,53.52,2,56.54,2,75.72,2,107.2,76.59,146,135.65,146c45.28,0,56.7-20.48,56.7-36.65,0-12.72-11-27.16-30.83-35.78"/><path d="M161.52,73.57c1.73,8.19,1.73,9.05,1.73,10.13,0,14-15.74,21.77-36.43,21.77C80,105.47,39.08,78.1,39.08,60a18.45,18.45,0,0,1,1.51-7.33l3.66-9.06A6.43,6.43,0,0,0,44,45.54C44,54.76,80.33,85,129,85c12.51,0,30.61-2.58,30.61-17.46a14,14,0,0,0-.31-3.42Z"/><path d="M581.24,94.3c0,11.89,7.15,17.67,20.19,17.67a52.11,52.11,0,0,0,11.89-1.68V96.51a24.84,24.84,0,0,1-7.68,1.16c-5.37,0-7.36-1.68-7.36-6.73V69.8h15.56V55.6H598.28v-18l-17,3.68V55.6H570V69.8h11.25Zm-53,.32c0-3.68,3.69-5.47,9.26-5.47a43.12,43.12,0,0,1,10.1,1.26v7.15A21.51,21.51,0,0,1,537,100.19c-5.47,0-8.73-2.1-8.73-5.57m5.2,17.56c6,0,10.84-1.26,15.36-4.31v3.37h16.82V75.58c0-13.56-9.15-21-24.39-21-8.52,0-16.94,2-26,6.1l6.1,12.52c6.52-2.74,12-4.42,16.83-4.42,7,0,10.62,2.73,10.62,8.31v2.73a49.53,49.53,0,0,0-12.62-1.58c-14.31,0-22.93,6-22.93,16.73,0,9.78,7.78,17.24,20.19,17.24m-92.44-.94h18.09V82.42h30.29v28.82h18.09V37.62H489.43V65.91H459.14V37.62H441.05ZM372.12,83.37c0-8,6.31-14.1,14.62-14.1a17.22,17.22,0,0,1,11.78,4.32V93a16.36,16.36,0,0,1-11.78,4.42c-8.2,0-14.62-6.1-14.62-14.09m26.61,27.87h16.83V33.94l-17,3.68V58.55a28.3,28.3,0,0,0-14.2-3.68c-16.2,0-28.92,12.51-28.92,28.5A28.25,28.25,0,0,0,383.79,112a25.07,25.07,0,0,0,14.94-4.84Zm-77.19-42.7c5.36,0,9.88,3.47,11.67,8.83H310c1.68-5.57,5.89-8.83,11.57-8.83M292.83,83.47c0,16.2,13.25,28.82,30.28,28.82,9.36,0,16.2-2.53,23.25-8.42l-11.26-10c-2.63,2.74-6.52,4.21-11.14,4.21a14.39,14.39,0,0,1-13.68-8.83h39.65V85.05c0-17.67-11.88-30.39-28.08-30.39a28.57,28.57,0,0,0-29,28.81M263.48,53.08c6,0,9.36,3.78,9.36,8.31s-3.36,8.3-9.36,8.3H245.61V53.08Zm-36,58.16h18.09V84.42h13.77l13.89,26.82h20.19l-16.2-29.45a22.27,22.27,0,0,0,13.88-20.72c0-13.25-10.41-23.45-26-23.45H227.52Z"/></svg>