<svg xmlns="http://www.w3.org/2000/svg" xmlns:xlink="http://www.w3.org/1999/xlink" width="208" height="83.845" viewBox="0 0 208 83.845">
  <defs>
    <clipPath id="clip-path">
      <rect width="208" height="83.845" fill="none"/>
    </clipPath>
  </defs>
  <g id="NEW_LOGO_ARECO_" data-name="NEW LOGO ARECO " clip-path="url(#clip-path)">
    <g id="Groupe_20" data-name="Groupe 20">
      <g id="Groupe_18" data-name="Groupe 18" transform="translate(0.073 65.625)">
        <g id="Groupe_17" data-name="Groupe 17">
          <path id="Tracé_3578" data-name="Tracé 3578" d="M.108,111.295V97.088H1.387v13.027H8.53v1.18Z" transform="translate(-0.108 -96.852)" fill="#161615"/>
          <path id="Tracé_3579" data-name="Tracé 3579" d="M15.481,108.544c.04,2.106,1,3.877,3.424,3.877a2.942,2.942,0,0,0,2.853-2.362H23a4.146,4.146,0,0,1-4.467,3.444c-2.951,0-4.329-2.538-4.329-5.234,0-2.677,1.475-5.235,4.408-5.235,3.306,0,4.506,2.42,4.506,5.51Zm6.356-1.082c-.138-1.909-1.16-3.345-3.207-3.345-1.929,0-2.952,1.613-3.109,3.345Z" transform="translate(-4.641 -98.764)" fill="#161615"/>
          <path id="Tracé_3580" data-name="Tracé 3580" d="M45.8,103.329h1.22c-.039.67-.1,1.456-.1,2.224v5.923c0,1.968.1,4.034-2.086,5.057a4.5,4.5,0,0,1-2.243.452c-1.791,0-3.916-.61-3.916-2.656h1.279c.137,1.18,1.534,1.574,2.793,1.574a2.874,2.874,0,0,0,2.991-2.735v-1.849H45.7a3.617,3.617,0,0,1-3.208,1.849c-2.971,0-4.25-2.263-4.25-4.978,0-2.676,1.2-5.156,4.211-5.156a3.772,3.772,0,0,1,3.247,1.83l.039-.079Zm-3.227.788c-2.145,0-3.05,2.165-3.05,3.975s.925,3.995,3.089,3.995c2.263,0,3.129-2.106,3.129-4.034C45.74,106.163,44.7,104.117,42.572,104.117Z" transform="translate(-12.374 -98.764)" fill="#161615"/>
          <path id="Tracé_3581" data-name="Tracé 3581" d="M63.547,108.269c0,2.6-1.456,5.234-4.6,5.234s-4.6-2.637-4.6-5.234,1.456-5.235,4.6-5.235S63.547,105.671,63.547,108.269Zm-4.6-4.152c-2.38,0-3.325,2.321-3.325,4.152s.945,4.152,3.325,4.152,3.326-2.322,3.326-4.152S61.323,104.117,58.942,104.117Z" transform="translate(-17.551 -98.764)" fill="#161615"/>
          <path id="Tracé_3582" data-name="Tracé 3582" d="M78.117,101.557H79.3v7.655c0,.767.059,1.554.1,2.223h-1.22l-.059-1.456-.039-.039a3.4,3.4,0,0,1-3.09,1.79c-3.227,0-3.483-2.853-3.483-3.994v-6.179h1.18v6.376a2.444,2.444,0,0,0,2.6,2.715c1.948,0,2.833-1.633,2.833-3.4Zm-3.424-4.034H76.13l1.948,2.853h-.925L75.4,98.29l-1.771,2.086h-.9Z" transform="translate(-23.073 -96.992)" fill="#161615"/>
          <path id="Tracé_3583" data-name="Tracé 3583" d="M87.944,103.311H85.976v-1.083h1.968v-2.1l1.181-.511v2.616h2.243v1.083H89.125v6.611a1.22,1.22,0,0,0,1.357,1.4,3.5,3.5,0,0,0,1.023-.118v1.023a4.91,4.91,0,0,1-1.2.177c-2.5,0-2.361-1.593-2.361-2.932Z" transform="translate(-27.727 -97.664)" fill="#161615"/>
          <path id="Tracé_3584" data-name="Tracé 3584" d="M111.84,109.838l-.039-.079a4.014,4.014,0,0,1-3.385,1.83c-2.932,0-4.053-2.794-4.053-5.274,0-2.557,1.121-5.195,4.053-5.195a3.951,3.951,0,0,1,3.385,1.79l.039-.039V97.088h1.18v11.984c0,.767.06,1.554.1,2.223H111.9Zm-3.227-7.634c-2.243,0-2.971,2.086-2.971,3.975,0,1.83.532,4.329,2.795,4.329,2.577,0,3.365-2.145,3.365-4.388C111.8,104.112,110.915,102.2,108.613,102.2Z" transform="translate(-33.641 -96.852)" fill="#161615"/>
          <path id="Tracé_3585" data-name="Tracé 3585" d="M121.881,108.544c.039,2.106,1,3.877,3.424,3.877a2.943,2.943,0,0,0,2.853-2.362h1.24a4.146,4.146,0,0,1-4.467,3.444c-2.952,0-4.329-2.538-4.329-5.234,0-2.677,1.476-5.235,4.408-5.235,3.306,0,4.506,2.42,4.506,5.51Zm6.356-1.082c-.138-1.909-1.161-3.345-3.207-3.345-1.928,0-2.952,1.613-3.109,3.345Z" transform="translate(-38.864 -98.764)" fill="#161615"/>
          <path id="Tracé_3586" data-name="Tracé 3586" d="M146.868,111.295h-1.18V97.088h1.18Z" transform="translate(-46.933 -96.852)" fill="#161615"/>
          <path id="Tracé_3587" data-name="Tracé 3587" d="M157.274,106.241c-.118-1.614-.944-2.125-2.342-2.125-1.239,0-2.263.374-2.42,1.712h-1.26c.3-2.026,1.81-2.794,3.7-2.794,2.184,0,3.541,1,3.5,3.266v4.684c-.02.767.059,1.554.1,2.223h-1.22l-.039-1.456h-.039l-.059.138a3.71,3.71,0,0,1-3.09,1.613,3.052,3.052,0,0,1-1.3-5.9c1.319-.57,3.03-.374,4.467-.453Zm-2.952,6.179c2.578,0,3.07-2.125,2.952-4.192-1.672.059-5.175-.256-5.175,2.224A1.972,1.972,0,0,0,154.322,112.42Z" transform="translate(-48.583 -98.764)" fill="#161615"/>
          <path id="Tracé_3588" data-name="Tracé 3588" d="M174.964,111.183v-8.8h-1.988V101.3h1.988V99.2c0-1.693.688-2.46,2.38-2.46a5.4,5.4,0,0,1,1.122.216V97.9a4.59,4.59,0,0,0-.728-.078c-1.614,0-1.653.806-1.594,2.223V101.3h2.243v1.083h-2.243v8.8Z" transform="translate(-55.71 -96.74)" fill="#161615"/>
          <path id="Tracé_3589" data-name="Tracé 3589" d="M185.449,113.2h-1.18v-7.655c.019-.767-.06-1.554-.1-2.224h1.22l.059,1.456h.039a2.541,2.541,0,0,1,2.224-1.752c.393-.019.787,0,1.18.02v1.142c-.236-.02-.492-.079-.728-.079-1.752,0-2.676,1.259-2.715,3.148Z" transform="translate(-59.31 -98.761)" fill="#161615"/>
          <path id="Tracé_3590" data-name="Tracé 3590" d="M199.15,106.241c-.118-1.614-.944-2.125-2.342-2.125-1.239,0-2.263.374-2.42,1.712h-1.26c.3-2.026,1.81-2.794,3.7-2.794,2.184,0,3.542,1,3.5,3.266v4.684c-.02.767.058,1.554.1,2.223h-1.22l-.039-1.456h-.039l-.059.138a3.71,3.71,0,0,1-3.09,1.613,3.052,3.052,0,0,1-1.3-5.9c1.319-.57,3.03-.374,4.467-.453ZM196.2,112.42c2.578,0,3.07-2.125,2.952-4.192-1.672.059-5.175-.256-5.175,2.224A1.972,1.972,0,0,0,196.2,112.42Z" transform="translate(-62.052 -98.764)" fill="#161615"/>
          <path id="Tracé_3591" data-name="Tracé 3591" d="M207.395,97.523h1.436l1.948,2.853h-.925L208.1,98.29l-1.771,2.086h-.906Zm.117,13.912v-9.878h1.181v9.878Z" transform="translate(-66.147 -96.992)" fill="#161615"/>
          <path id="Tracé_3592" data-name="Tracé 3592" d="M220.83,106.359c-.1-1.515-1.063-2.243-2.7-2.243-1.811,0-2.932,1.889-2.932,4.132,0,2.263,1.121,4.172,2.932,4.172a2.5,2.5,0,0,0,2.7-2.3h1.279a3.51,3.51,0,0,1-3.857,3.384c-2.952,0-4.329-2.538-4.329-5.234,0-2.677,1.476-5.235,4.408-5.235a3.494,3.494,0,0,1,3.778,3.325Z" transform="translate(-68.88 -98.764)" fill="#161615"/>
          <path id="Tracé_3593" data-name="Tracé 3593" d="M229.14,102.912h.039a3.4,3.4,0,0,1,3.089-1.79c3.228,0,3.483,2.853,3.483,3.995v6.178H234.57v-6.376a2.443,2.443,0,0,0-2.6-2.715c-1.948,0-2.834,1.633-2.834,3.4v5.687h-1.181V97.088h1.181Z" transform="translate(-73.394 -96.852)" fill="#161615"/>
          <path id="Tracé_3594" data-name="Tracé 3594" d="M244.492,108.544c.039,2.106,1,3.877,3.424,3.877a2.943,2.943,0,0,0,2.853-2.362h1.239a4.145,4.145,0,0,1-4.466,3.444c-2.952,0-4.329-2.538-4.329-5.234,0-2.677,1.476-5.235,4.408-5.235,3.306,0,4.506,2.42,4.506,5.51Zm6.356-1.082c-.138-1.909-1.161-3.345-3.207-3.345-1.929,0-2.952,1.613-3.109,3.345Z" transform="translate(-78.301 -98.764)" fill="#161615"/>
          <path id="Tracé_3595" data-name="Tracé 3595" d="M266.819,103.469H268v7.655c0,.767.059,1.554.1,2.223h-1.22l-.059-1.456-.039-.039a3.4,3.4,0,0,1-3.089,1.79c-3.228,0-3.483-2.853-3.483-3.994v-6.179h1.181v6.376a2.444,2.444,0,0,0,2.6,2.715c1.948,0,2.833-1.633,2.833-3.4Z" transform="translate(-83.767 -98.904)" fill="#161615"/>
          <path id="Tracé_3596" data-name="Tracé 3596" d="M277.466,113.2h-1.181v-7.655c.02-.767-.058-1.554-.1-2.224h1.22l.059,1.456h.039a2.542,2.542,0,0,1,2.224-1.752c.393-.019.787,0,1.18.02v1.142c-.236-.02-.492-.079-.728-.079-1.751,0-2.676,1.259-2.716,3.148Z" transform="translate(-88.906 -98.761)" fill="#161615"/>
        </g>
      </g>
      <g id="Groupe_19" data-name="Groupe 19" transform="translate(0 19.784)">
        <path id="Tracé_3597" data-name="Tracé 3597" d="M24.768,53.743c-2.1-6.027-4.422-11.942-6.91-17.968A230.118,230.118,0,0,0,5.529,70.107H0A354.18,354.18,0,0,1,15.037,30.468h5.916A373.7,373.7,0,0,1,35.935,70.107h-5.86c-1.162-3.87-2.378-7.8-3.7-11.721H9.091l1.437-4.643Z" transform="translate(0 -29.583)" fill="#0066a6"/>
        <path id="Tracé_3598" data-name="Tracé 3598" d="M65.7,70.107H60.392V30.468H75.983c8.679,0,15.922.94,15.922,10.891,0,8.072-3.7,10.67-9.73,11.389L94.281,70.107H87.7L75.927,53.079H69.57V48.436h8.348c5.971,0,8.514-.94,8.514-7.021,0-5.639-3.1-6.3-8.4-6.3H65.7Z" transform="translate(-19.425 -29.583)" fill="#0066a6"/>
        <path id="Tracé_3599" data-name="Tracé 3599" d="M124.624,65.463h24.049v4.644H119.316V30.468h28.8v4.644h-23.5Zm3.87-18.078h17.912v4.644H128.494Z" transform="translate(-38.377 -29.583)" fill="#0066a6"/>
        <path id="Tracé_3600" data-name="Tracé 3600" d="M198.722,41.658c-1.271-6.579-5.584-7.739-11-7.739-9.565,0-13.213,3.87-13.213,16.309,0,10.559,2.654,15.59,12.937,15.59,5.472,0,9.9-1.327,11.278-10.006h5.307c-1.659,13.655-11.389,14.761-16.751,14.761-11.609,0-18.244-5.2-18.244-20.566,0-14.153,5.639-20.843,18.244-20.843,10.283,0,15.756,4.423,16.751,12.494Z" transform="translate(-54.368 -29.164)" fill="#0066a6"/>
      </g>
      <path id="Tracé_3601" data-name="Tracé 3601" d="M283.451,14.263a1.826,1.826,0,1,1,1.207-2.283A1.826,1.826,0,0,1,283.451,14.263Z" transform="translate(-90.409 -3.439)" fill="#0066a6"/>
      <path id="Tracé_3602" data-name="Tracé 3602" d="M303.841,7.718A1.132,1.132,0,1,1,304.59,6.3,1.132,1.132,0,0,1,303.841,7.718Z" transform="translate(-97.257 -1.77)" fill="#c6c300"/>
      <path id="Tracé_3603" data-name="Tracé 3603" d="M297.154,24.133a1.056,1.056,0,1,1,.7-1.32A1.056,1.056,0,0,1,297.154,24.133Z" transform="translate(-95.137 -7.098)" fill="#ad0615"/>
      <path id="Tracé_3604" data-name="Tracé 3604" d="M281.229,2.065a1.056,1.056,0,1,1,.7-1.32A1.055,1.055,0,0,1,281.229,2.065Z" transform="translate(-90.015 0)" fill="#c6c300"/>
      <path id="Tracé_3605" data-name="Tracé 3605" d="M290.068,6.416a1.056,1.056,0,1,1,.7-1.321A1.056,1.056,0,0,1,290.068,6.416Z" transform="translate(-92.858 -1.399)" fill="#ad0615"/>
      <path id="Tracé_3606" data-name="Tracé 3606" d="M304.875,25.634a1.056,1.056,0,1,1,.7-1.321A1.057,1.057,0,0,1,304.875,25.634Z" transform="translate(-97.621 -7.58)" fill="#0066a6"/>
    </g>
    <path id="Tracé_3607" data-name="Tracé 3607" d="M276.958,25.26a4.778,4.778,0,1,1,2.48-4.689A4.782,4.782,0,0,1,276.958,25.26Z" transform="translate(-86.812 -5.237)" fill="#0066a6"/>
    <path id="Tracé_3608" data-name="Tracé 3608" d="M269.8,8.344a1.826,1.826,0,1,1,1.207-2.283A1.825,1.825,0,0,1,269.8,8.344Z" transform="translate(-86.018 -1.535)" fill="#ffd200"/>
    <path id="Tracé_3609" data-name="Tracé 3609" d="M299.313,31.791a1.826,1.826,0,1,1,1.207-2.283A1.826,1.826,0,0,1,299.313,31.791Z" transform="translate(-95.511 -9.076)" fill="#ffd200"/>
    <path id="Tracé_3610" data-name="Tracé 3610" d="M254.176,23.213a3.186,3.186,0,1,1,2.107-3.983A3.186,3.186,0,0,1,254.176,23.213Z" transform="translate(-80.427 -5.462)" fill="#0066a6"/>
    <path id="Tracé_3611" data-name="Tracé 3611" d="M287.074,31.366a2.074,2.074,0,0,1-3.31-2.238,1.327,1.327,0,0,1,.286-.541,2.076,2.076,0,0,1,3.7,1.591A1.814,1.814,0,0,1,287.074,31.366Z" transform="translate(-91.243 -8.935)" fill="#c6c300"/>
    <path id="Tracé_3612" data-name="Tracé 3612" d="M287.481,43.037a3.55,3.55,0,1,1,3.363-3.728A3.549,3.549,0,0,1,287.481,43.037Z" transform="translate(-91.265 -11.56)" fill="#0066a6"/>
    <path id="Tracé_3613" data-name="Tracé 3613" d="M265.453,19.116a2.543,2.543,0,1,1,1.682-3.179A2.544,2.544,0,0,1,265.453,19.116Z" transform="translate(-84.322 -4.548)" fill="#ad0615"/>
    <path id="Tracé_3614" data-name="Tracé 3614" d="M246.679,29.082c-14.927,0-19.128,9.288-19.128,20.677,0,11.112,3.981,20.843,19.184,20.843,14.927,0,19.183-9.344,19.183-20.788C265.918,38.7,261.883,29.082,246.679,29.082Zm13.363,25.932a12.834,12.834,0,0,1-2.882,7.15c-2.6,2.956-6.667,3.683-10.425,3.683-10.006,0-13.711-5.086-13.711-16.033,0-4.283.428-9.34,3.56-12.6a10.6,10.6,0,0,1,5.025-2.805c2.132-.562,4,.119,6-.21,2.209-.363,3.621-2.539,6.107-1.888,2.251.589,2.931,3.116,3.932,4.932a38.647,38.647,0,0,0,3.551,4.687c1.45,1.907,2.3,4.286,1.2,6.5S260.285,52.463,260.042,55.014Z" transform="translate(-73.19 -9.354)" fill="#0066a6"/>
    <path id="Tracé_3615" data-name="Tracé 3615" d="M255.632,70.646a5.842,5.842,0,1,1,3.032-5.734A5.848,5.848,0,0,1,255.632,70.646Z" transform="translate(-79.448 -19.191)" fill="#0066a6"/>
    <path id="Tracé_3616" data-name="Tracé 3616" d="M248.352,53.783a4.719,4.719,0,1,1,3.119-5.9A4.72,4.72,0,0,1,248.352,53.783Z" transform="translate(-77.915 -14.33)" fill="#ffd200"/>
    <path id="Tracé_3617" data-name="Tracé 3617" d="M269.845,56.673a4.762,4.762,0,1,1,3.149-5.954A4.761,4.761,0,0,1,269.845,56.673Z" transform="translate(-84.81 -15.232)" fill="#ad0615"/>
    <path id="Tracé_3618" data-name="Tracé 3618" d="M263.968,43.841a3.68,3.68,0,1,1,2.434-4.6A3.681,3.681,0,0,1,263.968,43.841Z" transform="translate(-83.37 -11.785)" fill="#c6c300"/>
  </g>
</svg>
