<?xml version="1.0" encoding="utf-8"?>
<!-- Generator: Adobe Illustrator 22.1.0, SVG Export Plug-In . SVG Version: 6.00 Build 0)  -->
<svg version="1.0" id="Calque_1" xmlns="http://www.w3.org/2000/svg" xmlns:xlink="http://www.w3.org/1999/xlink" x="0px" y="0px"
	 width="754.5px" height="257.3px" viewBox="0 0 754.5 257.3" style="enable-background:new 0 0 754.5 257.3;" xml:space="preserve"
	>
<style type="text/css">
	.st0{fill:#002F53;}
	.st1{fill:#869DB2;}
	.st2{fill:none;stroke:#B5321F;stroke-width:1.8241;stroke-linecap:round;stroke-miterlimit:10;}
	.st3{fill:none;stroke:#94C357;stroke-width:1.8241;stroke-linecap:round;stroke-miterlimit:10;}
	.st4{fill:none;stroke:#009BA4;stroke-width:1.8241;stroke-linecap:round;stroke-miterlimit:10;}
</style>
<g>
	<path class="st0" d="M195.7,124.4c7.5,0,25.2,2.1,35.4,4.4v10.4c-0.1,0-22-1.8-35.4-1.8c-18.1,0-24.6,10-24.6,52.8
		c0,28.9,5.4,52.5,24.6,52.5c15.2,0,35.4-1.2,35.4-1.2v10.4c-10.1,2.3-27.8,3.9-35.4,3.9c-26.8,0-35.4-28-35.4-65.9
		C160.3,148.7,166.9,124.4,195.7,124.4z"/>
	<path class="st0" d="M255,148.7c0-17.3,8.6-23.4,18.3-22.9l45.8,2.8v10.2h-45.8c-7.5,0-7.5,5.1-7.5,9.9v35.2l47.6,1.8V196
		l-47.6,1.8V233c0.1,9.3,4.8,9.2,9,9.2h44.4v10l-44.4,3c-9.6,0.7-19.7-2.3-19.7-22.2V148.7z"/>
	<path class="st0" d="M351.1,125.8l31,108.1l32.5-108.1h11.7l-39,128.9h-10.7l-37.3-128.9H351.1z"/>
	<path class="st0" d="M465.4,125.8h10.7l37.3,128.9h-12.8l-9.1-35.9h-42.3l-9.6,35.9h-13.2L465.4,125.8z M487.7,205.7l-17.1-60
		l-17.5,60H487.7z"/>
</g>
<g>
	<g>
		<path class="st0" d="M532.1,134c0-1.8,0.5-3.2,1.4-4.2c1-1,2.3-1.5,4.1-1.5c1.1,0,2.4,0.2,3.7,0.5c0.4,0.1,0.5,0.3,0.4,0.7
			l-0.1,0.6c-0.1,0.4-0.3,0.5-0.8,0.4c-1-0.3-2-0.4-3-0.4c-2.4,0-3.6,1.4-3.6,4.1v4c0,1.3,0.3,2.3,0.8,3.1s1.5,1.1,2.7,1.1
			c0.9,0,1.9-0.1,3.1-0.4c0.4-0.1,0.6,0,0.7,0.4l0.1,0.6c0.1,0.4-0.1,0.6-0.4,0.7c-1.2,0.3-2.4,0.5-3.7,0.5c-1.7,0-3.1-0.5-4.1-1.5
			c-1-1-1.4-2.4-1.4-4.2V134z"/>
		<path class="st0" d="M546.8,132.5c0-1.2,0.4-2.2,1.1-2.9s1.8-1,3.3-1h3.3c0.2,0,0.4,0.1,0.5,0.2c0.1,0.1,0.2,0.3,0.2,0.5v0.4
			c0,0.2-0.1,0.4-0.2,0.5c-0.1,0.1-0.3,0.2-0.5,0.2h-3.3c-0.9,0-1.5,0.2-1.9,0.6c-0.4,0.4-0.5,0.9-0.5,1.7v2.5h5.1
			c0.5,0,0.7,0.2,0.7,0.7v0.4c0,0.2-0.1,0.4-0.2,0.5c-0.1,0.1-0.3,0.2-0.5,0.2h-5.1v2.9c0,0.7,0.2,1.3,0.5,1.7
			c0.4,0.4,1,0.6,1.9,0.6h3.4c0.5,0,0.7,0.2,0.7,0.7v0.4c0,0.5-0.2,0.7-0.7,0.7h-3.4c-1.5,0-2.6-0.3-3.3-1s-1.1-1.6-1.1-2.8V132.5z"
			/>
		<path class="st0" d="M560.7,129.3c0-0.2,0.1-0.4,0.2-0.5c0.1-0.1,0.3-0.2,0.5-0.2h0.6c0.4,0,0.7,0.2,1,0.7l6.3,10.9
			c-0.1-1-0.1-1.9-0.1-2.8v-8.1c0-0.2,0.1-0.4,0.2-0.5c0.1-0.1,0.3-0.2,0.5-0.2h0.7c0.2,0,0.4,0.1,0.5,0.2c0.1,0.1,0.2,0.3,0.2,0.5
			v13.8c0,0.2-0.1,0.4-0.2,0.5s-0.3,0.2-0.5,0.2h-0.6c-0.4,0-0.8-0.2-1-0.7l-6.3-10.8c0.1,1.3,0.1,2.2,0.1,2.7v8.1
			c0,0.2-0.1,0.4-0.2,0.5s-0.3,0.2-0.5,0.2h-0.7c-0.2,0-0.4-0.1-0.5-0.2s-0.2-0.3-0.2-0.5V129.3z"/>
		<path class="st0" d="M580.2,130.4h-3.3c-0.2,0-0.4-0.1-0.5-0.2c-0.1-0.1-0.2-0.3-0.2-0.5v-0.4c0-0.2,0.1-0.4,0.2-0.5
			c0.1-0.1,0.3-0.2,0.5-0.2h8.6c0.2,0,0.4,0.1,0.5,0.2c0.1,0.1,0.2,0.3,0.2,0.5v0.4c0,0.2-0.1,0.4-0.2,0.5c-0.1,0.1-0.3,0.2-0.5,0.2
			h-3.3v12.7c0,0.2-0.1,0.4-0.2,0.5s-0.3,0.2-0.5,0.2h-0.7c-0.2,0-0.4-0.1-0.5-0.2s-0.2-0.3-0.2-0.5V130.4z"/>
		<path class="st0" d="M591.2,129.8c0-0.5,0.2-0.7,0.7-0.9c1.4-0.4,2.7-0.6,4-0.6c1.5,0,2.7,0.5,3.6,1.4s1.3,2.1,1.3,3.4
			c0,0.9-0.3,1.8-0.8,2.7c-0.6,0.9-1.4,1.5-2.5,1.8l2.7,5.4c0.1,0.2,0.1,0.4,0,0.5s-0.3,0.2-0.5,0.2h-0.8c-0.4,0-0.7-0.2-0.9-0.6
			l-2.6-5.3h-2.1v5.3c0,0.2-0.1,0.4-0.2,0.5s-0.3,0.2-0.5,0.2h-0.7c-0.2,0-0.4-0.1-0.5-0.2s-0.2-0.3-0.2-0.5V129.8z M595.7,136.2
			c0.9,0,1.7-0.3,2.2-0.9c0.5-0.6,0.8-1.3,0.8-2.1c0-0.9-0.2-1.6-0.7-2.2s-1.1-0.9-2.1-0.9c-0.9,0-1.8,0.1-2.6,0.4v5.7H595.7z"/>
		<path class="st0" d="M605.7,132.5c0-1.2,0.4-2.2,1.1-2.9s1.8-1,3.3-1h3.3c0.2,0,0.4,0.1,0.5,0.2c0.1,0.1,0.2,0.3,0.2,0.5v0.4
			c0,0.2-0.1,0.4-0.2,0.5c-0.1,0.1-0.3,0.2-0.5,0.2h-3.3c-0.9,0-1.5,0.2-1.9,0.6c-0.4,0.4-0.5,0.9-0.5,1.7v2.5h5.1
			c0.5,0,0.7,0.2,0.7,0.7v0.4c0,0.2-0.1,0.4-0.2,0.5c-0.1,0.1-0.3,0.2-0.5,0.2h-5.1v2.9c0,0.7,0.2,1.3,0.5,1.7
			c0.4,0.4,1,0.6,1.9,0.6h3.4c0.5,0,0.7,0.2,0.7,0.7v0.4c0,0.5-0.2,0.7-0.7,0.7h-3.4c-1.5,0-2.6-0.3-3.3-1s-1.1-1.6-1.1-2.8V132.5z"
			/>
		<path class="st0" d="M627,129.3c0-0.2,0.1-0.4,0.2-0.5c0.1-0.1,0.3-0.2,0.5-0.2h4.6c1.9,0,3.3,0.4,4.2,1.3
			c0.9,0.9,1.4,2.3,1.4,4.1v4.3c0,1.9-0.5,3.2-1.4,4.1c-0.9,0.9-2.3,1.3-4.2,1.3h-4.6c-0.2,0-0.4-0.1-0.5-0.2s-0.2-0.3-0.2-0.5
			V129.3z M632.3,142c1.4,0,2.3-0.3,2.8-1c0.5-0.7,0.7-1.6,0.7-3v-3.8c0-1.3-0.2-2.3-0.7-3c-0.5-0.7-1.4-1-2.8-1h-3.2V142H632.3z"/>
		<path class="st0" d="M642.6,133l-0.1-3.7c0-0.2,0.1-0.4,0.2-0.5c0.1-0.1,0.3-0.2,0.5-0.2h0.5c0.2,0,0.4,0.1,0.5,0.2
			c0.1,0.1,0.2,0.3,0.2,0.5l-0.1,3.7c0,0.5-0.3,0.7-0.7,0.7h-0.2C642.9,133.7,642.6,133.5,642.6,133z"/>
		<path class="st0" d="M649.2,132.5c0-1.2,0.4-2.2,1.1-2.9s1.8-1,3.3-1h3.3c0.2,0,0.4,0.1,0.5,0.2c0.1,0.1,0.2,0.3,0.2,0.5v0.4
			c0,0.2-0.1,0.4-0.2,0.5c-0.1,0.1-0.3,0.2-0.5,0.2h-3.3c-0.9,0-1.5,0.2-1.9,0.6c-0.4,0.4-0.5,0.9-0.5,1.7v2.5h5.1
			c0.5,0,0.7,0.2,0.7,0.7v0.4c0,0.2-0.1,0.4-0.2,0.5c-0.1,0.1-0.3,0.2-0.5,0.2h-5.1v2.9c0,0.7,0.2,1.3,0.5,1.7
			c0.4,0.4,1,0.6,1.9,0.6h3.4c0.5,0,0.7,0.2,0.7,0.7v0.4c0,0.5-0.2,0.7-0.7,0.7h-3.4c-1.5,0-2.6-0.3-3.3-1s-1.1-1.6-1.1-2.8V132.5z"
			/>
		<path class="st0" d="M666,130.4h-3.3c-0.2,0-0.4-0.1-0.5-0.2c-0.1-0.1-0.2-0.3-0.2-0.5v-0.4c0-0.2,0.1-0.4,0.2-0.5
			c0.1-0.1,0.3-0.2,0.5-0.2h8.6c0.2,0,0.4,0.1,0.5,0.2c0.1,0.1,0.2,0.3,0.2,0.5v0.4c0,0.2-0.1,0.4-0.2,0.5c-0.1,0.1-0.3,0.2-0.5,0.2
			h-3.3v12.7c0,0.2-0.1,0.4-0.2,0.5s-0.3,0.2-0.5,0.2h-0.7c-0.2,0-0.4-0.1-0.5-0.2s-0.2-0.3-0.2-0.5V130.4z"/>
		<path class="st0" d="M676.7,129.3c0-0.2,0.1-0.4,0.2-0.5c0.1-0.1,0.3-0.2,0.5-0.2h0.7c0.2,0,0.4,0.1,0.5,0.2
			c0.1,0.1,0.2,0.3,0.2,0.5v9.3c0,1,0.3,1.9,0.9,2.6c0.6,0.7,1.5,1.1,2.6,1.1s2-0.4,2.6-1.1c0.6-0.7,0.9-1.6,0.9-2.6v-9.3
			c0-0.2,0.1-0.4,0.2-0.5c0.1-0.1,0.3-0.2,0.5-0.2h0.7c0.2,0,0.4,0.1,0.5,0.2c0.1,0.1,0.2,0.3,0.2,0.5v8.9c0,1.9-0.5,3.3-1.4,4.3
			s-2.3,1.5-4.1,1.5c-1.8,0-3.1-0.5-4.1-1.5c-1-1-1.5-2.5-1.5-4.3V129.3z"/>
		<path class="st0" d="M693.6,129.3c0-0.2,0.1-0.4,0.2-0.5c0.1-0.1,0.3-0.2,0.5-0.2h4.6c1.9,0,3.3,0.4,4.2,1.3
			c0.9,0.9,1.4,2.3,1.4,4.1v4.3c0,1.9-0.5,3.2-1.4,4.1c-0.9,0.9-2.3,1.3-4.2,1.3h-4.6c-0.2,0-0.4-0.1-0.5-0.2s-0.2-0.3-0.2-0.5
			V129.3z M698.9,142c1.4,0,2.3-0.3,2.8-1c0.5-0.7,0.7-1.6,0.7-3v-3.8c0-1.3-0.2-2.3-0.7-3c-0.5-0.7-1.4-1-2.8-1h-3.2V142H698.9z"/>
		<path class="st0" d="M709.6,132.5c0-1.2,0.4-2.2,1.1-2.9s1.8-1,3.3-1h3.3c0.2,0,0.4,0.1,0.5,0.2c0.1,0.1,0.2,0.3,0.2,0.5v0.4
			c0,0.2-0.1,0.4-0.2,0.5c-0.1,0.1-0.3,0.2-0.5,0.2h-3.3c-0.9,0-1.5,0.2-1.9,0.6c-0.4,0.4-0.5,0.9-0.5,1.7v2.5h5.1
			c0.5,0,0.7,0.2,0.7,0.7v0.4c0,0.2-0.1,0.4-0.2,0.5c-0.1,0.1-0.3,0.2-0.5,0.2h-5.1v2.9c0,0.7,0.2,1.3,0.5,1.7
			c0.4,0.4,1,0.6,1.9,0.6h3.4c0.5,0,0.7,0.2,0.7,0.7v0.4c0,0.5-0.2,0.7-0.7,0.7H714c-1.5,0-2.6-0.3-3.3-1s-1.1-1.6-1.1-2.8V132.5z"
			/>
		<path class="st0" d="M532.8,165.8c0.5-0.7,1.1-1.1,2-1.5c-1.4-0.7-2.1-1.9-2.1-3.5c0-1.3,0.5-2.4,1.4-3.2c1-0.8,2.2-1.2,3.6-1.2
			c0.9,0,1.6,0.1,2.3,0.3c0.4,0.1,0.6,0.4,0.5,0.8l-0.1,0.4c-0.1,0.4-0.4,0.6-0.8,0.5c-0.6-0.1-1.2-0.2-1.9-0.2
			c-0.9,0-1.6,0.2-2.1,0.7c-0.5,0.5-0.8,1.1-0.8,2c0,0.9,0.3,1.5,0.8,2s1.2,0.7,2.1,0.7h4.6c0.5,0,0.7,0.2,0.7,0.7v0.3
			c0,0.4-0.2,0.7-0.7,0.7h-0.5v5.9c0,0.5-0.2,0.8-0.7,0.9c-1.2,0.5-2.4,0.7-3.7,0.7c-1.7,0-3-0.4-4-1.2c-1-0.8-1.5-2-1.5-3.4
			C532.1,167.2,532.3,166.4,532.8,165.8z M535.1,170.3c0.6,0.5,1.4,0.7,2.5,0.7c0.9,0,1.8-0.2,2.6-0.5v-5.3h-2.6
			c-1.1,0-1.9,0.2-2.5,0.7c-0.6,0.5-0.9,1.2-0.9,2.2S534.5,169.8,535.1,170.3z"/>
		<path class="st0" d="M555.3,158c0-0.2,0.1-0.4,0.2-0.5c0.1-0.1,0.3-0.2,0.5-0.2h4.6c1.9,0,3.3,0.4,4.2,1.3
			c0.9,0.9,1.4,2.3,1.4,4.1v4.3c0,1.9-0.5,3.2-1.4,4.1c-0.9,0.9-2.3,1.3-4.2,1.3H556c-0.2,0-0.4-0.1-0.5-0.2s-0.2-0.3-0.2-0.5V158z
			 M560.6,170.7c1.4,0,2.3-0.3,2.8-1c0.5-0.7,0.7-1.6,0.7-3V163c0-1.3-0.2-2.3-0.7-3c-0.5-0.7-1.4-1-2.8-1h-3.2v11.7H560.6z"/>
		<path class="st0" d="M571.3,161.2c0-1.2,0.4-2.2,1.1-2.9s1.8-1,3.3-1h3.3c0.2,0,0.4,0.1,0.5,0.2c0.1,0.1,0.2,0.3,0.2,0.5v0.4
			c0,0.2-0.1,0.4-0.2,0.5c-0.1,0.1-0.3,0.2-0.5,0.2h-3.3c-0.9,0-1.5,0.2-1.9,0.6c-0.4,0.4-0.5,0.9-0.5,1.7v2.5h5.1
			c0.5,0,0.7,0.2,0.7,0.7v0.4c0,0.2-0.1,0.4-0.2,0.5c-0.1,0.1-0.3,0.2-0.5,0.2h-5.1v2.9c0,0.7,0.2,1.3,0.5,1.7
			c0.4,0.4,1,0.6,1.9,0.6h3.4c0.5,0,0.7,0.2,0.7,0.7v0.4c0,0.5-0.2,0.7-0.7,0.7h-3.4c-1.5,0-2.6-0.3-3.3-1s-1.1-1.6-1.1-2.8V161.2z"
			/>
		<path class="st0" d="M591.7,158c-0.1-0.2-0.1-0.4,0-0.5c0.1-0.1,0.3-0.2,0.5-0.2h0.7c0.4,0,0.7,0.2,0.8,0.6l3.1,9.6
			c0.2,0.8,0.5,1.8,0.8,2.9c0.4-1.6,0.7-2.5,0.8-2.9l3.1-9.5c0.1-0.4,0.4-0.6,0.8-0.6h0.7c0.2,0,0.4,0.1,0.5,0.2s0.1,0.3,0,0.6
			l-4.5,13.7c-0.2,0.5-0.5,0.7-0.9,0.7h-1c-0.5,0-0.8-0.2-0.9-0.7L591.7,158z"/>
		<path class="st0" d="M609.1,159.5c0.2-0.8,0.6-1.4,1.1-1.8c0.5-0.5,1.1-0.7,1.8-0.7c0.7,0,1.3,0.2,1.8,0.7c0.5,0.5,0.8,1.1,1,1.8
			l3.2,12.2c0.1,0.2,0,0.4-0.1,0.5c-0.1,0.1-0.3,0.2-0.5,0.2h-0.7c-0.4,0-0.7-0.2-0.8-0.7l-0.9-3.6h-6.2l-0.9,3.6
			c-0.1,0.5-0.4,0.7-0.8,0.7h-0.7c-0.2,0-0.4-0.1-0.5-0.2c-0.1-0.1-0.1-0.3-0.1-0.5L609.1,159.5z M614.7,166.4l-1.7-6.7
			c-0.2-0.6-0.5-1-1-1c-0.5,0-0.8,0.3-1,1l-1.7,6.7H614.7z"/>
		<path class="st0" d="M623.2,158c0-0.2,0.1-0.4,0.2-0.5c0.1-0.1,0.3-0.2,0.5-0.2h0.7c0.2,0,0.4,0.1,0.5,0.2
			c0.1,0.1,0.2,0.3,0.2,0.5v12.7h6.2c0.5,0,0.7,0.2,0.7,0.7v0.4c0,0.5-0.2,0.7-0.7,0.7h-7.6c-0.2,0-0.4-0.1-0.5-0.2
			s-0.2-0.3-0.2-0.5V158z"/>
		<path class="st0" d="M636.5,163.3c0-1.9,0.5-3.4,1.6-4.5s2.5-1.7,4.3-1.7c1.8,0,3.2,0.6,4.3,1.7c1,1.1,1.6,2.7,1.6,4.6v3.2
			c0,1.9-0.5,3.4-1.5,4.6s-2.5,1.7-4.3,1.7c-1.8,0-3.2-0.6-4.3-1.7s-1.6-2.7-1.6-4.6V163.3z M639.5,169.7c0.6,0.9,1.5,1.3,2.9,1.3
			c2.5,0,3.7-1.6,3.7-4.7v-2.8c0-3.1-1.2-4.7-3.7-4.7c-1.3,0-2.3,0.4-2.9,1.3c-0.6,0.9-0.9,2-0.9,3.4v2.8
			C638.6,167.7,638.9,168.8,639.5,169.7z"/>
		<path class="st0" d="M653.7,158.5c0-0.5,0.2-0.7,0.7-0.9c1.4-0.4,2.7-0.6,4-0.6c1.5,0,2.7,0.5,3.6,1.4s1.3,2.1,1.3,3.4
			c0,0.9-0.3,1.8-0.8,2.7c-0.6,0.9-1.4,1.5-2.5,1.8l2.7,5.4c0.1,0.2,0.1,0.4,0,0.5s-0.3,0.2-0.5,0.2h-0.8c-0.4,0-0.7-0.2-0.9-0.6
			l-2.6-5.3h-2.1v5.3c0,0.2-0.1,0.4-0.2,0.5s-0.3,0.2-0.5,0.2h-0.7c-0.2,0-0.4-0.1-0.5-0.2s-0.2-0.3-0.2-0.5V158.5z M658.2,164.8
			c0.9,0,1.7-0.3,2.2-0.9c0.5-0.6,0.8-1.3,0.8-2.1c0-0.9-0.2-1.6-0.7-2.2s-1.1-0.9-2.1-0.9c-0.9,0-1.8,0.1-2.6,0.4v5.7H658.2z"/>
		<path class="st0" d="M668.6,158c0-0.2,0.1-0.4,0.2-0.5c0.1-0.1,0.3-0.2,0.5-0.2h0.7c0.2,0,0.4,0.1,0.5,0.2
			c0.1,0.1,0.2,0.3,0.2,0.5v13.8c0,0.2-0.1,0.4-0.2,0.5s-0.3,0.2-0.5,0.2h-0.7c-0.2,0-0.4-0.1-0.5-0.2s-0.2-0.3-0.2-0.5V158z"/>
		<path class="st0" d="M676.2,170.9c0.1-0.4,0.4-0.6,0.8-0.5c1.3,0.4,2.4,0.6,3.2,0.6c1,0,1.7-0.2,2.1-0.7s0.7-1.1,0.7-1.9
			c0-0.6-0.2-1.2-0.7-1.6c-0.5-0.4-1-0.8-1.7-1.1c-0.7-0.3-1.3-0.6-2-0.9c-0.7-0.3-1.2-0.8-1.7-1.4c-0.5-0.6-0.7-1.4-0.7-2.3
			c0-1.3,0.4-2.3,1.3-3c0.9-0.7,2.1-1.1,3.5-1.1c1,0,2,0.2,3,0.5c0.5,0.1,0.6,0.4,0.5,0.9l-0.1,0.3c-0.1,0.4-0.4,0.6-0.9,0.4
			c-0.9-0.3-1.7-0.4-2.4-0.4c-0.9,0-1.5,0.2-2,0.6c-0.5,0.4-0.7,1-0.7,1.7c0,0.6,0.2,1.1,0.7,1.5s1,0.8,1.7,1.1c0.7,0.3,1.3,0.6,2,1
			c0.7,0.4,1.2,0.9,1.7,1.5c0.5,0.7,0.7,1.4,0.7,2.4c0,1.3-0.5,2.3-1.4,3.1c-0.9,0.8-2.1,1.2-3.6,1.2c-1,0-2.2-0.2-3.6-0.6
			c-0.5-0.1-0.6-0.4-0.5-0.9L676.2,170.9z"/>
		<path class="st0" d="M692.7,159.5c0.2-0.8,0.6-1.4,1.1-1.8c0.5-0.5,1.1-0.7,1.8-0.7c0.7,0,1.3,0.2,1.8,0.7c0.5,0.5,0.8,1.1,1,1.8
			l3.2,12.2c0.1,0.2,0,0.4-0.1,0.5c-0.1,0.1-0.3,0.2-0.5,0.2h-0.7c-0.4,0-0.7-0.2-0.8-0.7l-0.9-3.6h-6.2l-0.9,3.6
			c-0.1,0.5-0.4,0.7-0.8,0.7h-0.7c-0.2,0-0.4-0.1-0.5-0.2c-0.1-0.1-0.1-0.3-0.1-0.5L692.7,159.5z M698.2,166.4l-1.7-6.7
			c-0.2-0.6-0.5-1-1-1c-0.5,0-0.8,0.3-1,1l-1.7,6.7H698.2z"/>
		<path class="st0" d="M708.1,159.1h-3.3c-0.2,0-0.4-0.1-0.5-0.2c-0.1-0.1-0.2-0.3-0.2-0.5V158c0-0.2,0.1-0.4,0.2-0.5
			c0.1-0.1,0.3-0.2,0.5-0.2h8.6c0.2,0,0.4,0.1,0.5,0.2c0.1,0.1,0.2,0.3,0.2,0.5v0.4c0,0.2-0.1,0.4-0.2,0.5c-0.1,0.1-0.3,0.2-0.5,0.2
			h-3.3v12.7c0,0.2-0.1,0.4-0.2,0.5s-0.3,0.2-0.5,0.2h-0.7c-0.2,0-0.4-0.1-0.5-0.2s-0.2-0.3-0.2-0.5V159.1z"/>
		<path class="st0" d="M719.2,158c0-0.2,0.1-0.4,0.2-0.5c0.1-0.1,0.3-0.2,0.5-0.2h0.7c0.2,0,0.4,0.1,0.5,0.2
			c0.1,0.1,0.2,0.3,0.2,0.5v13.8c0,0.2-0.1,0.4-0.2,0.5s-0.3,0.2-0.5,0.2h-0.7c-0.2,0-0.4-0.1-0.5-0.2s-0.2-0.3-0.2-0.5V158z"/>
		<path class="st0" d="M726.8,163.3c0-1.9,0.5-3.4,1.6-4.5s2.5-1.7,4.3-1.7c1.8,0,3.2,0.6,4.3,1.7c1,1.1,1.6,2.7,1.6,4.6v3.2
			c0,1.9-0.5,3.4-1.5,4.6s-2.5,1.7-4.3,1.7c-1.8,0-3.2-0.6-4.3-1.7s-1.6-2.7-1.6-4.6V163.3z M729.8,169.7c0.6,0.9,1.5,1.3,2.9,1.3
			c2.5,0,3.7-1.6,3.7-4.7v-2.8c0-3.1-1.2-4.7-3.7-4.7c-1.3,0-2.3,0.4-2.9,1.3c-0.6,0.9-0.9,2-0.9,3.4v2.8
			C728.9,167.7,729.2,168.8,729.8,169.7z"/>
		<path class="st0" d="M744,158c0-0.2,0.1-0.4,0.2-0.5c0.1-0.1,0.3-0.2,0.5-0.2h0.6c0.4,0,0.7,0.2,1,0.7l6.3,10.9
			c-0.1-1-0.1-1.9-0.1-2.8V158c0-0.2,0.1-0.4,0.2-0.5c0.1-0.1,0.3-0.2,0.5-0.2h0.7c0.2,0,0.4,0.1,0.5,0.2c0.1,0.1,0.2,0.3,0.2,0.5
			v13.8c0,0.2-0.1,0.4-0.2,0.5s-0.3,0.2-0.5,0.2h-0.6c-0.4,0-0.8-0.2-1-0.7l-6.3-10.8c0.1,1.3,0.1,2.2,0.1,2.7v8.1
			c0,0.2-0.1,0.4-0.2,0.5s-0.3,0.2-0.5,0.2h-0.7c-0.2,0-0.4-0.1-0.5-0.2s-0.2-0.3-0.2-0.5V158z"/>
		<path class="st0" d="M532.7,186.6c0-0.2,0.1-0.4,0.2-0.5c0.1-0.1,0.3-0.2,0.5-0.2h4.6c1.9,0,3.3,0.4,4.2,1.3
			c0.9,0.9,1.4,2.3,1.4,4.1v4.3c0,1.9-0.5,3.2-1.4,4.1c-0.9,0.9-2.3,1.3-4.2,1.3h-4.6c-0.2,0-0.4-0.1-0.5-0.2s-0.2-0.3-0.2-0.5
			V186.6z M538,199.4c1.4,0,2.3-0.3,2.8-1c0.5-0.7,0.7-1.6,0.7-3v-3.8c0-1.3-0.2-2.3-0.7-3c-0.5-0.7-1.4-1-2.8-1h-3.2v11.7H538z"/>
		<path class="st0" d="M548.7,189.8c0-1.2,0.4-2.2,1.1-2.9s1.8-1,3.3-1h3.3c0.2,0,0.4,0.1,0.5,0.2c0.1,0.1,0.2,0.3,0.2,0.5v0.4
			c0,0.2-0.1,0.4-0.2,0.5c-0.1,0.1-0.3,0.2-0.5,0.2h-3.3c-0.9,0-1.5,0.2-1.9,0.6c-0.4,0.4-0.5,0.9-0.5,1.7v2.5h5.1
			c0.5,0,0.7,0.2,0.7,0.7v0.4c0,0.2-0.1,0.4-0.2,0.5c-0.1,0.1-0.3,0.2-0.5,0.2h-5.1v2.9c0,0.7,0.2,1.3,0.5,1.7
			c0.4,0.4,1,0.6,1.9,0.6h3.4c0.5,0,0.7,0.2,0.7,0.7v0.4c0,0.5-0.2,0.7-0.7,0.7h-3.4c-1.5,0-2.6-0.3-3.3-1s-1.1-1.6-1.1-2.8V189.8z"
			/>
		<path class="st0" d="M562.1,199.6c0.1-0.4,0.4-0.6,0.8-0.5c1.3,0.4,2.4,0.6,3.2,0.6c1,0,1.7-0.2,2.1-0.7s0.7-1.1,0.7-1.9
			c0-0.6-0.2-1.2-0.7-1.6c-0.5-0.4-1-0.8-1.7-1.1c-0.7-0.3-1.3-0.6-2-0.9c-0.7-0.3-1.2-0.8-1.7-1.4c-0.5-0.6-0.7-1.4-0.7-2.3
			c0-1.3,0.4-2.3,1.3-3c0.9-0.7,2.1-1.1,3.5-1.1c1,0,2,0.2,3,0.5c0.5,0.1,0.6,0.4,0.5,0.9l-0.1,0.3c-0.1,0.4-0.4,0.6-0.9,0.4
			c-0.9-0.3-1.7-0.4-2.4-0.4c-0.9,0-1.5,0.2-2,0.6c-0.5,0.4-0.7,1-0.7,1.7c0,0.6,0.2,1.1,0.7,1.5s1,0.8,1.7,1.1c0.7,0.3,1.3,0.6,2,1
			c0.7,0.4,1.2,0.9,1.7,1.5c0.5,0.7,0.7,1.4,0.7,2.4c0,1.3-0.5,2.3-1.4,3.1c-0.9,0.8-2.1,1.2-3.6,1.2c-1,0-2.2-0.2-3.6-0.6
			c-0.5-0.1-0.6-0.4-0.5-0.9L562.1,199.6z"/>
		<path class="st0" d="M586,188.2c0.2-0.8,0.6-1.4,1.1-1.8c0.5-0.5,1.1-0.7,1.8-0.7c0.7,0,1.3,0.2,1.8,0.7c0.5,0.5,0.8,1.1,1,1.8
			l3.2,12.2c0.1,0.2,0,0.4-0.1,0.5c-0.1,0.1-0.3,0.2-0.5,0.2h-0.7c-0.4,0-0.7-0.2-0.8-0.7l-0.9-3.6h-6.2l-0.9,3.6
			c-0.1,0.5-0.4,0.7-0.8,0.7h-0.7c-0.2,0-0.4-0.1-0.5-0.2c-0.1-0.1-0.1-0.3-0.1-0.5L586,188.2z M591.5,195.1l-1.7-6.7
			c-0.2-0.6-0.5-1-1-1c-0.5,0-0.8,0.3-1,1l-1.7,6.7H591.5z"/>
		<path class="st0" d="M600,186.6c0-0.2,0.1-0.4,0.2-0.5c0.1-0.1,0.3-0.2,0.5-0.2h0.7c0.2,0,0.4,0.1,0.5,0.2
			c0.1,0.1,0.2,0.3,0.2,0.5v12.7h6.2c0.5,0,0.7,0.2,0.7,0.7v0.4c0,0.5-0.2,0.7-0.7,0.7h-7.6c-0.2,0-0.4-0.1-0.5-0.2
			s-0.2-0.3-0.2-0.5V186.6z"/>
		<path class="st0" d="M613.4,191.3c0-1.8,0.5-3.2,1.4-4.2c1-1,2.3-1.5,4.1-1.5c1.2,0,2.4,0.2,3.6,0.5c0.5,0.1,0.6,0.4,0.5,0.8
			l-0.1,0.4c-0.1,0.4-0.4,0.6-0.9,0.4c-1-0.3-2-0.4-3-0.4c-2.4,0-3.6,1.4-3.6,4.1v4c0,1.3,0.3,2.3,0.8,3s1.5,1.1,2.7,1.1
			c0.8,0,1.9-0.2,3.1-0.5v-4.5c0-0.5,0.2-0.7,0.7-0.8l0.7-0.1c0.4,0,0.7,0.2,0.7,0.6v5.4c0,0.2-0.1,0.4-0.2,0.5
			c-0.1,0.2-0.3,0.3-0.5,0.3c-1.7,0.5-3.2,0.7-4.5,0.7c-1.7,0-3.1-0.5-4.1-1.5c-1-1-1.4-2.4-1.4-4.2V191.3z"/>
		<path class="st0" d="M629.6,186.6c0-0.2,0.1-0.4,0.2-0.5c0.1-0.1,0.3-0.2,0.5-0.2h0.7c0.2,0,0.4,0.1,0.5,0.2
			c0.1,0.1,0.2,0.3,0.2,0.5v9.3c0,1,0.3,1.9,0.9,2.6c0.6,0.7,1.5,1.1,2.6,1.1s2-0.4,2.6-1.1c0.6-0.7,0.9-1.6,0.9-2.6v-9.3
			c0-0.2,0.1-0.4,0.2-0.5c0.1-0.1,0.3-0.2,0.5-0.2h0.7c0.2,0,0.4,0.1,0.5,0.2c0.1,0.1,0.2,0.3,0.2,0.5v8.9c0,1.9-0.5,3.3-1.4,4.3
			s-2.3,1.5-4.1,1.5c-1.8,0-3.1-0.5-4.1-1.5c-1-1-1.5-2.5-1.5-4.3V186.6z"/>
		<path class="st0" d="M646.1,189.8c0-1.2,0.4-2.2,1.1-2.9s1.8-1,3.3-1h3.3c0.2,0,0.4,0.1,0.5,0.2c0.1,0.1,0.2,0.3,0.2,0.5v0.4
			c0,0.2-0.1,0.4-0.2,0.5c-0.1,0.1-0.3,0.2-0.5,0.2h-3.3c-0.9,0-1.5,0.2-1.9,0.6c-0.4,0.4-0.5,0.9-0.5,1.7v2.5h5.1
			c0.5,0,0.7,0.2,0.7,0.7v0.4c0,0.2-0.1,0.4-0.2,0.5c-0.1,0.1-0.3,0.2-0.5,0.2h-5.1v2.9c0,0.7,0.2,1.3,0.5,1.7
			c0.4,0.4,1,0.6,1.9,0.6h3.4c0.5,0,0.7,0.2,0.7,0.7v0.4c0,0.5-0.2,0.7-0.7,0.7h-3.4c-1.5,0-2.6-0.3-3.3-1s-1.1-1.6-1.1-2.8V189.8z"
			/>
		<path class="st0" d="M659.5,199.6c0.1-0.4,0.4-0.6,0.8-0.5c1.3,0.4,2.4,0.6,3.2,0.6c1,0,1.7-0.2,2.1-0.7s0.7-1.1,0.7-1.9
			c0-0.6-0.2-1.2-0.7-1.6c-0.5-0.4-1-0.8-1.7-1.1c-0.7-0.3-1.3-0.6-2-0.9c-0.7-0.3-1.2-0.8-1.7-1.4c-0.5-0.6-0.7-1.4-0.7-2.3
			c0-1.3,0.4-2.3,1.3-3c0.9-0.7,2.1-1.1,3.5-1.1c1,0,2,0.2,3,0.5c0.5,0.1,0.6,0.4,0.5,0.9l-0.1,0.3c-0.1,0.4-0.4,0.6-0.9,0.4
			c-0.9-0.3-1.7-0.4-2.4-0.4c-0.9,0-1.5,0.2-2,0.6c-0.5,0.4-0.7,1-0.7,1.7c0,0.6,0.2,1.1,0.7,1.5s1,0.8,1.7,1.1c0.7,0.3,1.3,0.6,2,1
			c0.7,0.4,1.2,0.9,1.7,1.5c0.5,0.7,0.7,1.4,0.7,2.4c0,1.3-0.5,2.3-1.4,3.1c-0.9,0.8-2.1,1.2-3.6,1.2c-1,0-2.2-0.2-3.6-0.6
			c-0.5-0.1-0.6-0.4-0.5-0.9L659.5,199.6z"/>
	</g>
</g>
<g>
	<g>
		<circle class="st1" cx="125.6" cy="5.9" r="5.9"/>
		<circle class="st1" cx="125.6" cy="29.7" r="4.2"/>
		<circle class="st1" cx="103.9" cy="25.5" r="2.1"/>
	</g>
	<g>
		<g>
			<path class="st2" d="M69.7,256.3c0,0-18.5-52.9,20.6-85.2c28.5-23.5,46-45,39.9-75.5c-5.1-25.4-17.7-35.5-33.9-50.4"/>
			<path class="st2" d="M96.1,45.2c13.7,12.7,26.7,24.1,30.6,49.1c5,32.1-16.5,55-42.4,79c-34.6,32.1-14.7,83-14.7,83"/>
			<path class="st2" d="M96,45.2c11.1,10.5,24.6,23.2,27.4,47.8c3.8,33.6-21.6,57.9-44.9,82.5c-30.2,31.9-8.8,80.8-8.8,80.8"/>
			<path class="st2" d="M95.8,45.2c8.6,8.3,22.5,22.3,24.2,46.4c2.5,35.2-26.8,60.8-47.4,86c-25.7,31.6-2.9,78.7-2.9,78.7"/>
			<path class="st2" d="M95.6,45.2c6.1,6.1,20.2,21.5,21,45.1c1.1,36.8-32.1,63.6-49.9,89.5c-21.4,31.1,3,76.5,3,76.5"/>
			<path class="st2" d="M95.4,45.2c3.6,4,18,20.6,17.7,43.7c-0.4,38.3-37.4,66.3-52.4,93c-17.2,30.6,8.9,74.3,8.9,74.3"/>
			<path class="st2" d="M95.3,45.2c1.1,1.8,15.6,19.7,14.5,42.4c-1.9,39.9-42.9,69-55,96.5c-13.1,30,14.8,72.2,14.8,72.2"/>
			<path class="st2" d="M95.1,45.2c-1.4-0.4,13.2,18.9,11.3,41.1c-3.6,41.5-48.6,71.7-57.5,100.1c-9.2,29.4,20.8,70,20.8,70"/>
		</g>
		<g>
			<path class="st3" d="M74.2,16.3c0,0-20.4,32.9,5.1,74.5c21.1,34.5,46,81,34.4,117.9c-9.3,29.7-23.1,41.5-44.1,47.6"/>
			<path class="st3" d="M69.7,256.3c17.7-5.2,33.5-17.9,41.6-47.3c11.1-40.5-17.6-84.4-37.1-119.9c-22.5-41,0-72.9,0-72.9"/>
			<path class="st3" d="M69.7,256.3c14.5-4.2,32.2-17.9,39.2-46.9c10.6-44.1-22-85.3-39.8-121.8c-19.6-40.2,5.2-71.3,5.2-71.3"/>
			<path class="st3" d="M69.7,256.3c11.3-3.3,30.7-17.9,36.7-46.5C116.4,162,80,123.6,63.9,86C47,46.6,74.2,16.3,74.2,16.3"/>
			<path class="st3" d="M69.7,256.3c8-2.3,29.2-17.9,34.3-46.2c9.2-51.5-30.9-87-45.2-125.8C44.5,45.9,74.2,16.3,74.2,16.3"/>
			<path class="st3" d="M69.7,256.3c4.8-1.4,27.6-18,31.8-45.8c8.3-55.3-35.6-87.8-47.9-127.8C42,45.2,74.2,16.3,74.2,16.3"/>
			<path class="st3" d="M69.7,256.3c1.6-0.5,26-18,29.4-45.4c7.3-59-40.4-88.6-50.6-129.8c-9.1-36.6,25.7-64.8,25.7-64.8"/>
			<path class="st3" d="M69.7,256.3c-1.7,0.5,24.3-18.1,26.9-45.1c6.1-62.7-45.3-89.3-53.3-131.8c-6.8-35.7,30.9-63.2,30.9-63.2"/>
		</g>
		<g>
			<path class="st4" d="M18.5,63.6c0,0-3.8,27,16,56.9c23.9,36,60.8,65.5,57,94.7c-2.1,16.6-9.5,25.7-21.8,41.2"/>
			<path class="st4" d="M69.7,256.3C80,243.2,88.8,232.4,90.1,215c2.1-31-38-56.9-60.2-94.8C12,89.6,18.5,63.6,18.5,63.6"/>
			<path class="st4" d="M69.7,256.3c8.4-10.9,18.7-23.3,19-41.5c0.5-32.8-43-55-63.4-94.9c-16-31.3-6.8-56.4-6.8-56.4"/>
			<path class="st4" d="M69.7,256.3c6.5-8.6,18.2-22.6,17.6-41.7c-1.1-34.6-48-53.1-66.6-94.9c-14.2-31.9-2.2-56.2-2.2-56.2"/>
			<path class="st4" d="M69.7,256.3c4.5-6.2,17.8-21.9,16.2-41.8c-2.8-36.4-53.1-51.1-69.8-95c-12.4-32.6,2.3-55.9,2.3-55.9"/>
			<path class="st4" d="M69.7,256.3c2.5-3.9,17.2-21.3,14.9-42c-4.5-38.2-58.2-49.2-73-95.1c-10.7-33.2,6.9-55.7,6.9-55.7"/>
			<path class="st4" d="M69.7,256.3c0.6-1.6,16.7-20.6,13.5-42.2C77,174.2,19.7,167,6.9,119c-9-33.8,11.5-55.5,11.5-55.5"/>
			<path class="st4" d="M69.7,256.3c-1.4,0.7,16.3-19.9,12.1-42.3c-7.8-41.8-68.7-45.2-79.4-95.2C-5,84.4,18.5,63.6,18.5,63.6"/>
		</g>
	</g>
</g>
</svg>
