<?xml version="1.0" encoding="utf-8"?>
<!-- Generator: Adobe Illustrator 19.0.0, SVG Export Plug-In . SVG Version: 6.00 Build 0)  -->
<svg version="1.1" id="Untitled-Page_x25_201" xmlns="http://www.w3.org/2000/svg" xmlns:xlink="http://www.w3.org/1999/xlink"
	 x="0px" y="0px" viewBox="36 374 671 54" style="enable-background:new 36 374 671 54;" xml:space="preserve">
<style type="text/css">
	.st0{fill:none;}
	.st1{fill:#E61A01;}
	.st2{fill:#E71B02;stroke:#E71B02;stroke-width:2;}
</style>
<path class="st0" d="z"/>
<g id="Calque_x25_201">
	<path class="st1" d="M261.6,420.9h4.7h4.7l2.5-14.1h14.1l-2.5,14.1h4.7h4.7l6.6-37.5h-4.7h-4.7l-2.5,14.1h-14.1l2.5-14.1h-4.7h-4.7
		L261.6,420.9z"/>
	<path class="st1" d="M322.6,420.9l0.8-4.7l0.8-4.7h-16.4l0.8-4.7h16.4l0.8-4.7l0.8-4.7h-16.4l0.8-4.7h16.4l0.8-4.7l0.8-4.7h-25.8
		l-6.6,37.5H322.6z"/>
	<path class="st1" d="M353.1,420.9l0.8-4.7l0.8-4.7h-16.4l5-28.2h-4.7h-4.7l-6.6,37.5H353.1z"/>
	<path class="st1" d="M355.5,420.9h4.7h4.7l6.6-37.5h-4.7h-4.7L355.5,420.9z"/>
	<path class="st1" d="M408.7,392.4l1.4,12v0.1h-6.9l0.1-0.1L408.7,392.4z M386,420.9h4.8h4.8l3.3-7h12.2l0.8,7h4.8h4.8l-4.1-37.5h-7
		h-7L386,420.9z"/>
	<path class="st1" d="M425.9,420.9h4.7h4.7l6.6-37.5h-4.7h-4.7L425.9,420.9z"/>
	<path class="st1" d="M456.6,392.8h5.7c1.2,0,2,0.3,2.6,0.8c0.6,0.5,0.8,1.4,0.6,2.4c-0.2,1.2-0.7,2.1-1.5,2.8c-0.8,0.7-1.8,1-2.9,1
		h-5.7L456.6,392.8z M442.3,420.9h4.7h4.7l2.9-16.4h0.1l6.4,16.4h5.4h5.4l-8.2-16.9c2.8-0.2,5.3-1.2,7.4-3.1c2.3-2,3.8-4.8,4.4-8.1
		c0.6-3.2,0-5.6-1.7-7.2c-1.8-1.5-4.8-2.3-9.1-2.3h-11.1h-4.6L442.3,420.9z"/>
	<path class="st1" d="M502.2,387.2h1.1l4.2,33.8h2.9h2.9l16.1-33.8h1l-5.9,33.8h2.3h2.3l6.6-37.5h-4.6h-4.6L512,413.7h-0.9
		l-3.8-30.3h-4.6h-4.6l-6.6,37.5h2.3h2.3L502.2,387.2z"/>
	<path class="st1" d="M552.2,416.3c-3.4,0-5.8-1.2-7.2-3.7c-1.4-2.4-1.7-5.9-0.9-10.4c0.8-4.5,2.3-8,4.6-10.4
		c2.3-2.4,5.1-3.7,8.5-3.7c3.7,0,6.2,1.1,7.5,3.3c1.2,2.2,1.4,5.8,0.6,10.8c-0.8,4.5-2.3,8-4.6,10.4
		C558.4,415,555.6,416.3,552.2,416.3z M551.4,420.9c4.9,0,8.9-1.6,12.1-4.9c3.2-3.2,5.4-7.9,6.4-13.9l0-0.1c1.1-6.3,0.7-11-1.3-14.1
		c-1.9-3-5.5-4.6-10.7-4.6c-4.9,0-8.9,1.6-12.1,4.9c-3.2,3.3-5.4,7.9-6.5,13.9c-1.1,6-0.6,10.7,1.5,13.9
		C543,419.3,546.5,420.9,551.4,420.9z"/>
	<path class="st1" d="M581.7,388.8l13.1,32.2h3.5h3.5l6.6-37.5h-2.3h-2.3l-5.7,32.3l-13-32.3h-3.5H578l-6.6,37.5h2.3h2.3
		L581.7,388.8z"/>
	<path class="st1" d="M625.3,387.3h2.4l2.3,17.2h-13.2L625.3,387.3z M604.2,420.9h2.3h2.3l5.7-11.7h16.2l1.6,11.7h2.3h2.3l-5.1-37.5
		h-4.7h-4.7L604.2,420.9z"/>
	<path class="st1" d="M669.2,411.6c-2.6,1.8-4.7,3-6.4,3.7c-1.7,0.7-3.5,1-5.4,1c-3.2,0-5.5-1.2-6.8-3.8c-1.3-2.5-1.6-6.1-0.8-10.8
		c0.8-4.3,2.2-7.7,4.4-10c2.2-2.3,4.8-3.5,8.1-3.5c2.4,0,4.5,0.6,6.2,1.8c1.7,1.2,2.9,3,3.6,5.2l1.2-7c-1-1.6-2.3-2.7-3.9-3.5
		c-1.7-0.8-3.8-1.2-6.2-1.2c-4.8,0-8.7,1.6-11.9,4.7c-3.1,3.1-5.2,7.6-6.2,13.4c-1.1,6.2-0.7,11.1,1.3,14.4c2,3.4,5.3,5.1,10.1,5.1
		c2.2,0,4.3-0.4,6.4-1.2c2.1-0.8,3.8-2,5.4-3.5L669.2,411.6z"/>
	<path class="st1" d="M688.3,416.3c-3.4,0-5.8-1.2-7.2-3.7c-1.4-2.4-1.7-5.9-0.9-10.4c0.8-4.5,2.3-8,4.6-10.4
		c2.3-2.4,5.1-3.7,8.5-3.7c3.7,0,6.2,1.1,7.5,3.3c1.2,2.2,1.4,5.8,0.6,10.8c-0.8,4.5-2.3,8-4.6,10.4
		C694.5,415,691.7,416.3,688.3,416.3z M687.5,420.9c4.9,0,8.9-1.6,12.1-4.9c3.2-3.2,5.4-7.9,6.4-13.9l0-0.1c1.1-6.3,0.7-11-1.3-14.1
		c-1.9-3-5.5-4.6-10.7-4.6c-4.9,0-8.9,1.6-12.1,4.9c-3.2,3.3-5.4,7.9-6.5,13.9c-1.1,6-0.6,10.7,1.5,13.9
		C679.1,419.3,682.6,420.9,687.5,420.9z"/>
	<path class="st2" d="M208.1,417.4c-20.2-7.7-40.4-4.5-60.6-1c-18.8,3.2-37.5,6.6-56.4,9c-7.1,0.9-14.6-0.5-21.8-1.7
		c-3.4-0.6-6.4-3.1-9.4-5.5c14.6,6.9,28,2.6,41.7-2.8c16.3-6.5,32.5-13.3,49.2-18.2C174.3,390.2,192.4,401.4,208.1,417.4z"/>
	<path class="st2" d="M82.5,387.5c53.9,1.6,107.3-2.5,160.3-11.1C190,389.7,136.5,392.7,82.5,387.5z"/>
	<path class="st2" d="M66.8,405.1c-17.4-4.1-21.9-1.7-27.9,15.4c-1-8.6,1.7-15.3,8.1-18.4C54.2,398.7,60.8,400.4,66.8,405.1z"/>
</g>
<path class="st0" d="z"/>
</svg>
