<?xml version="1.0" encoding="UTF-8"?>
<svg xmlns="http://www.w3.org/2000/svg" xmlns:xlink="http://www.w3.org/1999/xlink" width="3887.87pt" height="847.18pt" viewBox="0 0 3887.87 847.18" version="1.1">
<defs>
<clipPath id="clip1">
  <path d="M 0 0 L 3887.871094 0 L 3887.871094 847.179688 L 0 847.179688 Z M 0 0 "/>
</clipPath>
</defs>
<g id="surface1">
<path style=" stroke:none;fill-rule:nonzero;fill:rgb(97.599792%,90.99884%,7.798767%);fill-opacity:1;" d="M 1 846.179688 L 3886.871094 846.179688 L 3886.871094 1.003906 L 1 1.003906 Z M 1 846.179688 "/>
<g clip-path="url(#clip1)" clip-rule="nonzero">
<path style="fill:none;stroke-width:20;stroke-linecap:butt;stroke-linejoin:miter;stroke:rgb(0%,0%,0%);stroke-opacity:1;stroke-miterlimit:4;" d="M 10 10.003125 L 38868.710938 10.003125 L 38868.710938 8461.760938 L 10 8461.760938 Z M 10 10.003125 " transform="matrix(0.1,0,0,-0.1,0,847.18)"/>
</g>
<path style=" stroke:none;fill-rule:nonzero;fill:rgb(0%,0%,0%);fill-opacity:1;" d="M 72.84375 777.636719 L 821.230469 777.636719 L 821.230469 69.542969 L 72.84375 69.542969 Z M 72.84375 777.636719 "/>
<path style=" stroke:none;fill-rule:nonzero;fill:rgb(100%,100%,100%);fill-opacity:1;" d="M 821.230469 777.636719 L 72.84375 777.636719 L 72.84375 69.542969 L 821.230469 69.542969 Z M 821.230469 56.59375 L 59.890625 56.59375 L 59.890625 790.589844 L 834.183594 790.589844 L 834.183594 56.59375 "/>
<path style=" stroke:none;fill-rule:nonzero;fill:rgb(98.799133%,88.999939%,2.69928%);fill-opacity:1;" d="M 240.046875 447.09375 L 371.949219 447.09375 L 371.949219 315.1875 L 240.046875 315.1875 Z M 240.046875 447.09375 "/>
<path style=" stroke:none;fill-rule:nonzero;fill:rgb(100%,100%,100%);fill-opacity:1;" d="M 372.699219 314.4375 L 239.296875 314.4375 L 239.296875 447.84375 L 372.699219 447.84375 Z M 371.199219 446.34375 L 240.796875 446.34375 L 240.796875 315.9375 L 371.199219 315.9375 Z M 371.199219 446.34375 "/>
<path style=" stroke:none;fill-rule:nonzero;fill:rgb(98.799133%,88.999939%,2.69928%);fill-opacity:1;" d="M 381.265625 447.09375 L 513.171875 447.09375 L 513.171875 315.1875 L 381.265625 315.1875 Z M 381.265625 447.09375 "/>
<path style=" stroke:none;fill-rule:nonzero;fill:rgb(100%,100%,100%);fill-opacity:1;" d="M 513.921875 314.4375 L 380.515625 314.4375 L 380.515625 447.84375 L 513.921875 447.84375 Z M 512.421875 446.34375 L 382.015625 446.34375 L 382.015625 315.9375 L 512.421875 315.9375 Z M 512.421875 446.34375 "/>
<path style=" stroke:none;fill-rule:nonzero;fill:rgb(98.799133%,88.999939%,2.69928%);fill-opacity:1;" d="M 381.265625 305.691406 L 513.171875 305.691406 L 513.171875 173.78125 L 381.265625 173.78125 Z M 381.265625 305.691406 "/>
<path style=" stroke:none;fill-rule:nonzero;fill:rgb(100%,100%,100%);fill-opacity:1;" d="M 513.921875 173.03125 L 380.515625 173.03125 L 380.515625 306.441406 L 513.921875 306.441406 Z M 512.421875 304.941406 L 382.015625 304.941406 L 382.015625 174.53125 L 512.421875 174.53125 Z M 512.421875 304.941406 "/>
<path style=" stroke:none;fill-rule:nonzero;fill:rgb(98.799133%,88.999939%,2.69928%);fill-opacity:1;" d="M 522.488281 447.09375 L 654.390625 447.09375 L 654.390625 315.1875 L 522.488281 315.1875 Z M 522.488281 447.09375 "/>
<path style=" stroke:none;fill-rule:nonzero;fill:rgb(100%,100%,100%);fill-opacity:1;" d="M 655.140625 314.4375 L 521.738281 314.4375 L 521.738281 447.84375 L 655.140625 447.84375 Z M 653.640625 446.34375 L 523.238281 446.34375 L 523.238281 315.9375 L 653.640625 315.9375 Z M 653.640625 446.34375 "/>
<path style=" stroke:none;fill-rule:nonzero;fill:rgb(98.799133%,88.999939%,2.69928%);fill-opacity:1;" d="M 240.046875 588.496094 L 371.949219 588.496094 L 371.949219 456.589844 L 240.046875 456.589844 Z M 240.046875 588.496094 "/>
<path style=" stroke:none;fill-rule:nonzero;fill:rgb(100%,100%,100%);fill-opacity:1;" d="M 372.699219 455.839844 L 239.296875 455.839844 L 239.296875 589.246094 L 372.699219 589.246094 Z M 371.199219 587.746094 L 240.796875 587.746094 L 240.796875 457.339844 L 371.199219 457.339844 Z M 371.199219 587.746094 "/>
<path style=" stroke:none;fill-rule:nonzero;fill:rgb(98.799133%,88.999939%,2.69928%);fill-opacity:1;" d="M 381.265625 588.496094 L 513.171875 588.496094 L 513.171875 456.589844 L 381.265625 456.589844 Z M 381.265625 588.496094 "/>
<path style=" stroke:none;fill-rule:nonzero;fill:rgb(100%,100%,100%);fill-opacity:1;" d="M 513.921875 455.839844 L 380.515625 455.839844 L 380.515625 589.246094 L 513.921875 589.246094 Z M 512.421875 587.746094 L 382.015625 587.746094 L 382.015625 457.339844 L 512.421875 457.339844 Z M 512.421875 587.746094 "/>
<path style=" stroke:none;fill-rule:nonzero;fill:rgb(98.799133%,88.999939%,2.69928%);fill-opacity:1;" d="M 522.488281 588.496094 L 654.390625 588.496094 L 654.390625 456.589844 L 522.488281 456.589844 Z M 522.488281 588.496094 "/>
<path style=" stroke:none;fill-rule:nonzero;fill:rgb(100%,100%,100%);fill-opacity:1;" d="M 655.140625 455.839844 L 521.738281 455.839844 L 521.738281 589.246094 L 655.140625 589.246094 Z M 653.640625 587.746094 L 523.238281 587.746094 L 523.238281 457.339844 L 653.640625 457.339844 Z M 653.640625 587.746094 "/>
<path style=" stroke:none;fill-rule:nonzero;fill:rgb(98.799133%,88.999939%,2.69928%);fill-opacity:1;" d="M 240.046875 728.820313 L 371.949219 728.820313 L 371.949219 596.910156 L 240.046875 596.910156 Z M 240.046875 728.820313 "/>
<path style=" stroke:none;fill-rule:nonzero;fill:rgb(100%,100%,100%);fill-opacity:1;" d="M 372.699219 596.160156 L 239.296875 596.160156 L 239.296875 729.570313 L 372.699219 729.570313 Z M 371.199219 728.070313 L 240.796875 728.070313 L 240.796875 597.660156 L 371.199219 597.660156 Z M 371.199219 728.070313 "/>
<path style=" stroke:none;fill-rule:nonzero;fill:rgb(98.799133%,88.999939%,2.69928%);fill-opacity:1;" d="M 381.265625 728.820313 L 513.171875 728.820313 L 513.171875 596.910156 L 381.265625 596.910156 Z M 381.265625 728.820313 "/>
<path style=" stroke:none;fill-rule:nonzero;fill:rgb(100%,100%,100%);fill-opacity:1;" d="M 513.921875 596.160156 L 380.515625 596.160156 L 380.515625 729.570313 L 513.921875 729.570313 Z M 512.421875 728.070313 L 382.015625 728.070313 L 382.015625 597.660156 L 512.421875 597.660156 Z M 512.421875 728.070313 "/>
<path style=" stroke:none;fill-rule:nonzero;fill:rgb(98.799133%,88.999939%,2.69928%);fill-opacity:1;" d="M 522.488281 728.820313 L 654.390625 728.820313 L 654.390625 596.910156 L 522.488281 596.910156 Z M 522.488281 728.820313 "/>
<path style=" stroke:none;fill-rule:nonzero;fill:rgb(100%,100%,100%);fill-opacity:1;" d="M 655.140625 596.160156 L 521.738281 596.160156 L 521.738281 729.570313 L 655.140625 729.570313 Z M 653.640625 728.070313 L 523.238281 728.070313 L 523.238281 597.660156 L 653.640625 597.660156 Z M 653.640625 728.070313 "/>
<path style=" stroke:none;fill-rule:nonzero;fill:rgb(98.799133%,88.999939%,2.69928%);fill-opacity:1;" d="M 547.574219 232.621094 L 571.949219 102.988281 L 701.582031 127.355469 L 677.210938 256.992188 Z M 547.574219 232.621094 "/>
<path style=" stroke:none;fill-rule:nonzero;fill:rgb(100%,100%,100%);fill-opacity:1;" d="M 571.351563 102.113281 L 546.699219 233.21875 L 677.808594 257.867188 L 702.457031 126.757813 Z M 572.546875 103.863281 L 700.703125 127.957031 L 676.613281 256.117188 L 548.453125 232.023438 "/>
<path style=" stroke:none;fill-rule:nonzero;fill:rgb(98.799133%,88.999939%,2.69928%);fill-opacity:1;" d="M 384.113281 161.472656 L 449.777344 93.296875 L 515.4375 161.472656 L 515.3125 161.601563 L 384.578125 161.960938 "/>
<path style=" stroke:none;fill-rule:nonzero;fill:rgb(100%,100%,100%);fill-opacity:1;" d="M 449.777344 92.214844 L 383.074219 161.472656 L 384.261719 162.710938 L 515.632813 162.347656 L 516.480469 161.472656 Z M 449.777344 94.378906 L 513.800781 160.855469 L 385.410156 161.210938 "/>
<path style=" stroke:none;fill-rule:nonzero;fill:rgb(98.799133%,88.999939%,2.69928%);fill-opacity:1;" d="M 240.046875 306.230469 L 240.046875 306.171875 L 371.203125 174.324219 L 371.953125 174.324219 L 371.953125 306.230469 "/>
<path style=" stroke:none;fill-rule:nonzero;fill:rgb(100%,100%,100%);fill-opacity:1;" d="M 372.703125 173.574219 L 370.890625 173.574219 L 239.296875 305.863281 L 239.296875 306.980469 L 372.703125 306.980469 Z M 371.203125 175.386719 L 371.203125 305.480469 L 241.796875 305.480469 "/>
<path style=" stroke:none;fill-rule:nonzero;fill:rgb(98.799133%,88.999939%,2.69928%);fill-opacity:1;" d="M 100.410156 446.554688 L 230.730469 315.542969 L 230.730469 446.554688 "/>
<path style=" stroke:none;fill-rule:nonzero;fill:rgb(100%,100%,100%);fill-opacity:1;" d="M 231.480469 313.894531 L 231.3125 313.894531 L 98.605469 447.304688 L 231.480469 447.304688 Z M 229.980469 317.359375 L 229.980469 445.804688 L 102.214844 445.804688 "/>
<path style=" stroke:none;fill-rule:nonzero;fill:rgb(98.799133%,88.999939%,2.69928%);fill-opacity:1;" d="M 665.453125 446.554688 L 665.453125 315.539063 L 795.777344 446.554688 "/>
<path style=" stroke:none;fill-rule:nonzero;fill:rgb(100%,100%,100%);fill-opacity:1;" d="M 664.878906 313.894531 L 664.703125 313.894531 L 664.703125 447.304688 L 797.578125 447.304688 Z M 666.203125 317.359375 L 793.972656 445.804688 L 666.203125 445.804688 "/>
<path style=" stroke:none;fill-rule:nonzero;fill:rgb(0%,0%,0%);fill-opacity:1;" d="M 883.5625 69.765625 L 1185.410156 69.765625 L 1185.410156 175.023438 L 1091.808594 175.023438 L 1091.808594 399.75 L 957.960938 399.75 L 957.960938 175.023438 L 883.5625 175.023438 "/>
<path style=" stroke:none;fill-rule:nonzero;fill:rgb(0%,0%,0%);fill-opacity:1;" d="M 1996.441406 69.765625 L 2298.269531 69.765625 L 2298.269531 175.023438 L 2204.679688 175.023438 L 2204.679688 399.75 L 2070.828125 399.75 L 2070.828125 175.023438 L 1996.441406 175.023438 "/>
<path style=" stroke:none;fill-rule:nonzero;fill:rgb(0%,0%,0%);fill-opacity:1;" d="M 1305.539063 231.09375 C 1305.539063 263.535156 1313.140625 286.847656 1328.351563 301.019531 C 1343.550781 315.195313 1364.230469 322.285156 1390.398438 322.285156 C 1417.308594 322.285156 1438.128906 315.347656 1452.871094 301.457031 C 1467.621094 287.574219 1474.988281 262.65625 1474.988281 226.707031 C 1474.988281 196.460938 1467.289063 174.355469 1451.910156 160.402344 C 1436.519531 146.449219 1415.648438 139.46875 1389.300781 139.46875 C 1364.050781 139.46875 1343.78125 146.558594 1328.480469 160.730469 C 1313.191406 174.90625 1305.539063 198.363281 1305.539063 231.09375 M 1180.320313 230.65625 C 1180.320313 178.195313 1198.75 137.355469 1235.609375 108.121094 C 1272.460938 78.898438 1323.78125 64.28125 1389.570313 64.28125 C 1457.019531 64.28125 1508.988281 78.640625 1545.480469 107.359375 C 1581.960938 136.070313 1600.210938 176.296875 1600.210938 228.023438 C 1600.210938 265.585938 1592.230469 296.382813 1576.300781 320.421875 C 1560.351563 344.460938 1537.320313 363.164063 1507.191406 376.535156 C 1477.058594 389.910156 1439.511719 396.59375 1394.550781 396.59375 C 1348.839844 396.59375 1311.019531 390.820313 1281.078125 379.277344 C 1251.128906 367.730469 1226.851563 349.464844 1208.238281 324.476563 C 1189.621094 299.484375 1180.320313 268.214844 1180.320313 230.65625 "/>
<path style=" stroke:none;fill-rule:nonzero;fill:rgb(0%,0%,0%);fill-opacity:1;" d="M 2425.761719 69.765625 L 2671.269531 69.765625 L 2671.269531 160.402344 L 2555.730469 160.402344 L 2555.730469 199.246094 L 2654.328125 199.246094 L 2654.328125 285.722656 L 2560.039063 285.722656 L 2560.039063 399.75 L 2425.761719 399.75 "/>
<path style=" stroke:none;fill-rule:nonzero;fill:rgb(0%,0%,0%);fill-opacity:1;" d="M 2870.929688 268.582031 L 2835.460938 153.058594 L 2800.359375 268.582031 Z M 2882.898438 355.339844 L 2791.75 355.339844 L 2771.769531 399.75 L 2636.921875 399.75 L 2762.011719 69.765625 L 2915.429688 69.765625 L 3040.5 399.75 L 2903.289063 399.75 "/>
<path style=" stroke:none;fill-rule:nonzero;fill:rgb(0%,0%,0%);fill-opacity:1;" d="M 3057.898438 399.75 L 3191.957031 399.75 L 3191.957031 69.765625 L 3057.898438 69.765625 Z M 3057.898438 399.75 "/>
<path style=" stroke:none;fill-rule:nonzero;fill:rgb(0%,0%,0%);fill-opacity:1;" d="M 3341.320313 220.796875 L 3356.628906 220.796875 C 3361.550781 220.796875 3371.089844 219.296875 3385.238281 216.292969 C 3392.378906 214.945313 3398.230469 211.484375 3402.761719 205.933594 C 3407.28125 200.382813 3409.539063 193.996094 3409.539063 186.796875 C 3409.539063 176.136719 3405.980469 167.957031 3398.820313 162.246094 C 3391.671875 156.542969 3378.238281 153.6875 3358.539063 153.6875 L 3341.320313 153.6875 Z M 3232.859375 399.890625 L 3232.859375 69.765625 L 3412.839844 69.765625 C 3446.21875 69.765625 3471.71875 72.460938 3489.359375 77.867188 C 3506.988281 83.273438 3521.21875 93.296875 3532.03125 107.9375 C 3542.828125 122.570313 3548.230469 140.398438 3548.230469 161.414063 C 3548.230469 179.738281 3544.101563 195.53125 3535.828125 208.816406 C 3527.558594 222.105469 3516.191406 232.882813 3501.730469 241.132813 C 3492.5 246.390625 3479.851563 250.742188 3463.800781 254.191406 C 3476.660156 258.257813 3486.03125 262.3125 3491.910156 266.367188 C 3495.871094 269.074219 3501.640625 274.859375 3509.179688 283.722656 C 3516.71875 292.589844 3521.769531 299.425781 3524.300781 304.230469 L 3576.609375 399.894531 L 3437.320313 399.890625 C 3437.320313 399.890625 3382.300781 291.808594 3372.441406 291.808594 L 3362.910156 291.808594 L 3362.910156 399.890625 "/>
<path style=" stroke:none;fill-rule:nonzero;fill:rgb(0%,0%,0%);fill-opacity:1;" d="M 3584.101563 74.082031 L 3832.941406 74.082031 L 3832.941406 159.960938 L 3718.171875 159.960938 L 3718.171875 193.765625 L 3820.890625 193.765625 L 3820.890625 276.578125 L 3718.171875 276.578125 L 3718.171875 309.703125 L 3837.769531 309.703125 L 3837.769531 395.433594 L 3584.101563 395.433594 "/>
<path style=" stroke:none;fill-rule:nonzero;fill:rgb(0%,0%,0%);fill-opacity:1;" d="M 1839.96875 69.765625 L 1839.96875 265.777344 C 1839.96875 266.359375 1839.910156 266.890625 1839.898438 267.464844 C 1839.390625 274.707031 1834.980469 302.992188 1797.019531 302.992188 C 1767.960938 302.992188 1760.699219 286.410156 1759.089844 275.386719 C 1758.941406 272.3125 1758.871094 269.140625 1758.871094 265.777344 L 1758.871094 69.765625 L 1621.800781 69.765625 L 1621.800781 261.21875 C 1621.800781 276.992188 1625.238281 295.101563 1632.128906 315.542969 C 1636.390625 328.253906 1644.300781 340.59375 1655.859375 352.570313 C 1667.421875 364.542969 1680.171875 373.777344 1694.109375 380.273438 C 1708.039063 386.777344 1725.378906 391.117188 1746.128906 393.308594 C 1766.859375 395.5 1786 396.597656 1803.550781 396.597656 C 1833.878906 396.597656 1869.558594 393.015625 1891.199219 385.863281 C 1906.78125 380.75 1921.660156 371.878906 1935.839844 359.246094 C 1950.019531 346.617188 1960.441406 331.867188 1967.078125 314.996094 C 1973.71875 298.132813 1977.039063 280.207031 1977.039063 261.21875 L 1977.039063 69.765625 "/>
<path style=" stroke:none;fill-rule:nonzero;fill:rgb(0%,0%,0%);fill-opacity:1;" d="M 1864.289063 536.265625 L 2054.78125 536.265625 L 2054.78125 611.734375 L 2004.949219 611.734375 L 2004.949219 772.851563 L 1909 772.851563 L 1909 611.734375 L 1864.289063 611.734375 "/>
<path style=" stroke:none;fill-rule:nonzero;fill:rgb(0%,0%,0%);fill-opacity:1;" d="M 2076.171875 536.265625 L 2242.101563 536.265625 L 2242.101563 599.492188 L 2166.21875 599.492188 L 2166.21875 624.378906 L 2233.210938 624.378906 L 2233.210938 685.347656 L 2166.21875 685.347656 L 2166.21875 709.730469 L 2245.640625 709.730469 L 2245.640625 772.847656 L 2076.171875 772.847656 "/>
<path style=" stroke:none;fill-rule:nonzero;fill:rgb(0%,0%,0%);fill-opacity:1;" d="M 3067.878906 536.265625 L 3067.878906 678.15625 C 3067.878906 678.578125 3067.839844 678.960938 3067.828125 679.371094 C 3067.511719 684.617188 3064.660156 705.09375 3040.210938 705.09375 C 3021.488281 705.09375 3016.820313 693.09375 3015.78125 685.105469 C 3015.691406 682.886719 3015.640625 680.585938 3015.640625 678.15625 L 3015.640625 536.265625 L 2927.339844 536.265625 L 2927.339844 674.851563 C 2927.339844 686.269531 2929.558594 699.375 2933.988281 714.175781 C 2936.75 723.375 2941.828125 732.308594 2949.28125 740.976563 C 2956.730469 749.644531 2964.941406 756.332031 2973.921875 761.03125 C 2982.890625 765.742188 2994.058594 768.878906 3007.429688 770.464844 C 3020.789063 772.054688 3033.121094 772.847656 3044.421875 772.847656 C 3063.949219 772.847656 3086.941406 770.253906 3100.878906 765.078125 C 3110.921875 761.378906 3120.511719 754.957031 3129.640625 745.8125 C 3138.769531 736.664063 3145.480469 725.988281 3149.769531 713.777344 C 3154.03125 701.578125 3156.179688 688.597656 3156.179688 674.851563 L 3156.179688 536.265625 "/>
<path style=" stroke:none;fill-rule:nonzero;fill:rgb(0%,0%,0%);fill-opacity:1;" d="M 1311.949219 536.273438 L 1408.089844 536.273438 L 1439.808594 680.21875 L 1471.171875 536.273438 L 1567.25 536.273438 L 1601.789063 772.847656 L 1520.328125 772.847656 L 1516.011719 592.433594 L 1466.691406 772.847656 L 1412.5 772.847656 L 1367.5 592.433594 L 1358.871094 772.847656 L 1277.410156 772.847656 "/>
<path style=" stroke:none;fill-rule:nonzero;fill:rgb(0%,0%,0%);fill-opacity:1;" d="M 3188.121094 527.636719 L 3277.269531 527.636719 L 3314.828125 600.417969 L 3351.261719 527.636719 L 3439.621094 527.636719 L 3361.671875 650.847656 L 3442.25 772.847656 L 3349.988281 772.847656 L 3313.378906 699.894531 L 3275.808594 772.847656 L 3185.011719 772.847656 L 3266.609375 649.558594 "/>
<path style=" stroke:none;fill-rule:nonzero;fill:rgb(0%,0%,0%);fill-opacity:1;" d="M 2795.25 678.8125 L 2771.25 595.992188 L 2747.511719 678.8125 Z M 2803.351563 741.011719 L 2741.679688 741.011719 L 2728.160156 772.851563 L 2636.921875 772.851563 L 2721.558594 536.273438 L 2825.351563 536.273438 L 2909.980469 772.851563 L 2817.140625 772.851563 "/>
<path style=" stroke:none;fill-rule:nonzero;fill:rgb(0%,0%,0%);fill-opacity:1;" d="M 1770.890625 678.8125 L 1746.890625 595.992188 L 1723.148438 678.8125 Z M 1778.988281 741.011719 L 1717.320313 741.011719 L 1703.800781 772.851563 L 1612.558594 772.851563 L 1697.199219 536.273438 L 1800.988281 536.273438 L 1885.621094 772.851563 L 1792.78125 772.851563 "/>
<path style=" stroke:none;fill-rule:nonzero;fill:rgb(0%,0%,0%);fill-opacity:1;" d="M 2527.449219 772.847656 L 2614.851563 772.847656 L 2614.851563 536.265625 L 2527.449219 536.265625 Z M 2527.449219 772.847656 "/>
<path style=" stroke:none;fill-rule:nonzero;fill:rgb(0%,0%,0%);fill-opacity:1;" d="M 2353.609375 644.507813 L 2363.839844 644.507813 C 2367.128906 644.507813 2373.5 643.425781 2382.96875 641.277344 C 2387.738281 640.308594 2391.640625 637.828125 2394.671875 633.855469 C 2397.699219 629.875 2399.210938 625.296875 2399.210938 620.136719 C 2399.210938 612.496094 2396.820313 606.636719 2392.039063 602.542969 C 2387.261719 598.453125 2378.289063 596.414063 2365.121094 596.414063 L 2353.609375 596.414063 Z M 2281.109375 772.847656 L 2281.109375 536.273438 L 2401.410156 536.273438 C 2423.71875 536.273438 2440.761719 538.203125 2452.550781 542.082031 C 2464.339844 545.953125 2473.851563 553.136719 2481.070313 563.628906 C 2488.289063 574.109375 2491.910156 586.886719 2491.910156 601.953125 C 2491.910156 615.074219 2489.140625 626.402344 2483.621094 635.921875 C 2478.089844 645.445313 2470.488281 653.167969 2460.828125 659.078125 C 2454.648438 662.847656 2446.199219 665.960938 2435.46875 668.429688 C 2444.070313 671.347656 2450.328125 674.257813 2454.261719 677.160156 C 2456.910156 679.097656 2460.761719 683.246094 2465.808594 689.597656 C 2470.839844 695.953125 2474.21875 700.847656 2475.910156 704.296875 L 2510.871094 772.847656 L 2417.78125 772.847656 C 2417.78125 772.847656 2381 695.390625 2374.410156 695.390625 L 2368.039063 695.390625 L 2368.039063 772.847656 "/>
</g>
</svg>
